SplineFontDB: 1.0
FontName: Tuffy-Bold
FullName: Tuffy Bold
FamilyName: Tuffy
Weight: Bold
Copyright: Created by Thatcher Ulrich (http://tulrich.com) with FontForge 1.0 (http://fontforge.sf.net)\n\nThis font, including hint instructions, has been donated to the Public Domain.  Do whatever you want with it.\n
Comments: 2004-9-1: Created.
Version: 001.000
ItalicAngle: 0
UnderlinePosition: -100
UnderlineWidth: 50
Ascent: 780
Descent: 220
XUID: [1021 745 1046372284 8541737]
FSType: 0
PfmFamily: 33
TTFWeight: 700
TTFWidth: 5
Panose: 2 11 8 3 6 1 0 0 0 0
LineGap: 93
VLineGap: 0
OS2WinAscent: 0
OS2WinAOffset: 1
OS2WinDescent: 0
OS2WinDOffset: 1
HheadAscent: 0
HheadAOffset: 1
HheadDescent: 0
HheadDOffset: 1
ScriptLang: 2
 1 latn 1 dflt 
 1 DFLT 1 dflt 
TtfTable: cvt  4
!$MDh
EndTtf
LangName: 1033 "" "" "" "" "" "" "" "" "" "Thatcher Ulrich" "" "http://tulrich.com+AAoA" "http://tulrich.com+AAoA" "Public Domain+AAoA" 
Encoding: unicode
UnicodeInterp: none
DisplaySize: -36
AntiAlias: 1
FitToEm: 1
WinInfo: 34 17 7
BeginPrivate: 7
BlueValues 23 [-16 2 522 538 708 728]
OtherBlues 0 
StdHW 4 [66]
StdVW 5 [70]

StemSnapH 6 [66] 

StemSnapV 6 [70] 

BlueScale 8 0.039625
EndPrivate
Grid
-24 262 m 2
 772 262 l 0
531 830 m 25
 531 -16 l 25
-20 710 m 2
 776 710 l 0
-22 524 m 2
 774 524 l 0
490 830 m 25
 490 -16 l 25
562 832 m 25
 562 -14 l 25
-24 355 m 2
 772 355 l 0
-28 -14 m 2
 768 -14 l 0
70 832 m 25
 70 -14 l 25
EndSplineSet
TeXData: 1 10485760 0 315621 157810 105207 456131 1048576 105207 783286 444596 497025 792723 393216 433062 380633 303038 157286 324010 404750 52429 2506097 1059062 262144
BeginChars: 65536 203
StartChar: exclam
Encoding: 33 33 1
Width: 236
Flags: HW
HStem: 691 20G<64 195>
VStem: 64 131<389 711>
Fore
175 195 m 1
 84 195 l 1
 64 390 l 1
 64 711 l 1
 195 711 l 1
 195 390 l 1
 175 195 l 1
EndSplineSet
Ref: 46 46 N 1 0 0 1 20 0
EndChar
StartChar: quotedbl
Encoding: 34 34 2
Width: 422
Flags: HW
Back
203 511 m 1
 203 754 l 1
 273 754 l 1
 273 511 l 1
 203 511 l 1
60 513 m 1
 60 756 l 1
 130 756 l 1
 130 513 l 1
 60 513 l 1
EndSplineSet
Fore
244 512 m 5
 244 755 l 1
 363 755 l 1
 363 512 l 5
 244 512 l 5
60 513 m 5
 60 756 l 1
 179 756 l 1
 179 513 l 5
 60 513 l 5
EndSplineSet
EndChar
StartChar: numbersign
Encoding: 35 35 3
Width: 782
Flags: HW
Back
468 267 m 0
 468 432 l 0
 301 432 l 0
 301 267 l 0
 468 267 l 0
541 198 m 0
 541 26 l 1
 468 26 l 1
 468 198 l 0
 301 198 l 0
 301 26 l 1
 228 26 l 1
 228 198 l 0
 58 198 l 1
 58 267 l 1
 228 267 l 0
 228 432 l 0
 58 432 l 1
 58 500 l 1
 228 500 l 0
 228 685 l 1
 301 685 l 1
 301 500 l 0
 468 500 l 0
 468 685 l 1
 541 685 l 1
 541 500 l 0
 717 500 l 1
 717 432 l 1
 541 432 l 0
 541 267 l 0
 717 267 l 1
 717 198 l 1
 541 198 l 0
EndSplineSet
Fore
423 291 m 0
 423 408 l 0
 352 408 l 0
 352 291 l 0
 423 291 l 0
547 174 m 0
 547 23 l 1
 423 23 l 1
 423 174 l 0
 352 174 l 0
 352 23 l 1
 228 23 l 1
 228 174 l 0
 58 174 l 1
 58 291 l 1
 228 291 l 0
 228 408 l 0
 58 408 l 1
 58 524 l 1
 228 524 l 0
 228 685 l 1
 352 685 l 1
 352 524 l 0
 423 524 l 0
 423 685 l 1
 547 685 l 1
 547 524 l 0
 723 524 l 1
 723 408 l 1
 547 408 l 0
 547 291 l 0
 723 291 l 1
 723 174 l 1
 547 174 l 0
EndSplineSet
KernsSLIF: 36 -27 0 0
EndChar
StartChar: dollar
Encoding: 36 36 4
Width: 442
Flags: HW
Back
24 206 m 1x4e
 83 225 l 1
 97 191 147 148 204 148 c 0
 257 148 313 167 313 235 c 1
 313 281 267 320 201 332 c 0
 96 350 27 392 27 489 c 0
 27 575 113 624 167 624 c 0xae
 167 711 l 9
 240 711 l 17x1e
 240 626 l 0
 294 626 375 566 387 511 c 0
 327 490 l 1
 318 519 269 565 204 565 c 1
 129 565 100 532 100 485 c 1
 100 427 133 414 200 401 c 0
 311 381 386 319 386 236 c 0
 386 133 294 89 240 89 c 0x6e
 240 0 l 9
 167 0 l 17x8e
 167 89 l 0
 119 89 40 144 24 206 c 1x4e
EndSplineSet
Fore
22 217 m 1x4e
 125.849 248.542 l 1
 136.511 213.861 170.59 168 214 168 c 0
 260 168 275 196 275 241 c 1
 275 272.299 247.893 308.835 209 317 c 0
 99.1724 336.949 27 383.497 27 491 c 0
 27 589.647 103.171 645.852 151 645.852 c 0xae
 151 711 l 9
 275 711 l 17x1e
 275 648.817 l 0
 321.275 648.817 390.687 580.22 400.971 517.339 c 0
 299.8 480.836 l 1
 292 502 272 550 218 550 c 1
 158 550 151 510 151 487 c 1
 151 460 169.612 441.557 207.4 433.237 c 0
 321.742 411.269 399 333.168 399 242 c 0
 399 132 332 68 275 68 c 0x6e
 275 0 l 9
 151 0 l 17x8e
 151 68 l 0
 107.699 68 36.4336 138.043 22 217 c 1x4e
EndSplineSet
EndChar
StartChar: percent
Encoding: 37 37 5
Width: 701
Flags: HW
Back
430 182 m 0
 430 140 457 107 499 107 c 0
 538 107 571 138 571 182 c 0
 571 221 540 255 499 255 c 0
 461 255 430 221 430 182 c 0
367 182 m 0
 367 255 426 314 500 314 c 0
 574 314 634 255 634 182 c 0
 634 109 574 51 500 51 c 0
 426 51 367 109 367 182 c 0
108 526 m 0
 108 484 136 451 178 451 c 0
 217 451 250 482 250 526 c 0
 250 565 219 599 178 599 c 0
 140 599 108 565 108 526 c 0
46 526 m 0
 46 599 105 658 179 658 c 0
 253 658 313 599 313 526 c 0
 313 453 253 395 179 395 c 0
 105 395 46 453 46 526 c 0
202 67 m 1
 129 67 l 1
 481 644 l 0
 551 644 l 1
 202 67 l 1
EndSplineSet
Fore
459 181 m 0
 459 150.2 478 132 502 132 c 0
 526 132 544 148.733 544 181 c 0
 544 209.315 525.486 234 501 234 c 0
 478.2 234 459 209.315 459 181 c 0
354 180.828 m 0
 354 265.537 419.654 334 502 334 c 0
 583.731 334 650 265.614 650 181 c 0
 650 97.4122 583.731 31 502 31 c 0
 419.654 31 354 97.3362 354 180.828 c 0
151 525 m 0
 151 494.2 170 476 194 476 c 0
 218 476 236 492.733 236 525 c 0
 236 553.315 217.486 578 193 578 c 0
 170.2 578 151 553.315 151 525 c 0
46 525.44 m 0
 46 609.81 111.654 678 194 678 c 0
 276.284 678 343 609.614 343 525 c 0
 343 441.412 276.284 375 194 375 c 0
 111.654 375 46 441.607 46 525.44 c 0
237 58 m 1
 134.349 58.8303 l 1
 462.075 654.029 l 0
 560 653 l 1
 237 58 l 1
EndSplineSet
EndChar
StartChar: ampersand
Encoding: 38 38 6
Width: 627
Flags: HW
Back
367 600 m 17xf4
 356 631 306 660 264 660 c 1
 211 660 156 626 156 554 c 1xf4
 156 478 208 438 272 438 c 1
 355 438 l 1
 355 369 l 1
 274 369 l 2
 183 369 116 308 116 210 c 0
 116 121 188 54 269 54 c 1
 352 54 407 125 407 199 c 1xfa
 302 199 l 1
 302 267 l 1
 557 267 l 1
 557 198 l 1xf1
 480 198 l 1
 480 113 421 -15 269 -15 c 1
 154 -15 39 62 39 203 c 0xfa
 39 340 120 392 173 404 c 1
 130 418 79 468 79 554 c 0
 79 654 158 729 265 729 c 0
 349 729 403 688 428 637 c 9
 367 600 l 17xf4
EndSplineSet
Fore
347 570.05 m 21xf4
 336 592.758 306 624 264 624 c 5
 224.201 624 182.9 598.981 182.9 546 c 5xf4
 182.9 490.966 222.841 462 272 462 c 5
 355 462 l 5
 355 345 l 5
 274 345 l 6
 204 345 156.023 276 156.023 199 c 4
 156.023 144 202 92 269 92 c 5
 346 92 377 132.641 377 175 c 5xfa
 292 175 l 5
 292 281 l 5
 578 281 l 5
 578 175.7 l 5xf1
 501 175.7 l 5
 501 96.0078 432 -26 269 -26 c 5
 140 -26 29 65 29 191 c 4xfa
 29 342.41 110 388 145.567 404.141 c 5
 112 418 52 464.668 52 546 c 4
 52 666 148 742 265 742 c 4
 360.35 742 421.646 688.501 450.024 621.953 c 13
 347 570.05 l 21xf4
EndSplineSet
EndChar
StartChar: quotesingle
Encoding: 39 39 7
Width: 238
Flags: HW
Back
58 513 m 1
 58 756 l 1
 131 756 l 1
 131 513 l 1
 58 513 l 1
EndSplineSet
Fore
58 513 m 5
 58 756 l 1
 182 756 l 1
 182 513 l 5
 58 513 l 5
EndSplineSet
EndChar
StartChar: parenleft
Encoding: 40 40 8
Width: 319
Flags: HW
Back
131 -41 m 1
 51 82 15 224 15 361 c 0
 15 487 54 642 131 763 c 1
 218 763 l 1
 128 632 89 487 89 356 c 0
 89 228 133 83 218 -41 c 1
 131 -41 l 1
EndSplineSet
Fore
141 -41 m 1
 40.3105 86.2832 15 219.229 15 361 c 0
 15 491.327 44.0928 638.651 141.018 763.807 c 5
 269.8 763 l 1
 179.94 632 141 487 141 356 c 0
 141 228 184.932 83 269.8 -41 c 1
 141 -41 l 1
EndSplineSet
EndChar
StartChar: parenright
Encoding: 41 41 9
Width: 314
Flags: HW
Back
125 -47 m 1
 39 -47 l 1
 123 76 168 227 168 355 c 0
 168 475 124 632 39 757 c 1
 125 757 l 1
 202 636 242 481 242 355 c 0
 242 221 204 74 125 -47 c 1
EndSplineSet
Fore
166 -47 m 1
 39 -47 l 1
 123 76 168 227 168 355 c 0
 168 475 124 632 39 757 c 1
 166.297 756.371 l 1
 263.503 631.346 294 485.191 294 355 c 0
 294 216.333 265.932 78.2139 166 -47 c 1
EndSplineSet
EndChar
StartChar: asterisk
Encoding: 42 42 10
Width: 508
Flags: HW
Back
286 278 m 1
 351 165 l 1
 292 129 l 1
 226 243 l 1
 160 129 l 1
 100 164 l 1
 168 278 l 1
 28 278 l 1
 28 347 l 1
 167 347 l 1
 96 469 l 1
 155 504 l 1
 226 381 l 1
 296 506 l 1
 355 470 l 1
 287 347 l 1
 420 347 l 1
 420 278 l 1
 286 278 l 1
EndSplineSet
Fore
352.393 254 m 1
 410.822 164.57 l 1
 310 104 l 1
 255.674 186.563 l 1
 205 104 l 1
 102.802 163.167 l 1
 162.382 254 l 1
 28 254 l 1
 28 371 l 1
 161.852 371 l 1
 96 462 l 1
 196.788 521.655 l 1
 254.658 432 l 1
 317.241 522.81 l 1
 417 463 l 1
 352.74 371 l 1
 482 371 l 1
 482 254 l 1
 352.393 254 l 1
EndSplineSet
EndChar
StartChar: plus
Encoding: 43 43 11
Width: 475
Flags: W
HStem: 254 117<280 420>
VStem: 163 117<114 254>
Back
33 347 m 1
 183 347 l 1
 183 499 l 1
 252 499 l 1
 252 347 l 1
 402 347 l 1
 402 278 l 1
 252 278 l 1
 252 126 l 1
 183 126 l 1
 183 278 l 1
 33 278 l 1
 33 347 l 1
EndSplineSet
Fore
33 371.3 m 1
 163 371 l 1
 163 518 l 1
 280.3 518.432 l 1
 280 371 l 1
 420.3 371.3 l 1
 420 254 l 1
 280 254 l 1
 280.3 114 l 1
 163 114 l 1
 163 254 l 1
 33 254 l 1
 33 371.3 l 1
EndSplineSet
EndChar
StartChar: comma
Encoding: 44 44 12
Width: 217
Flags: HW
Back
150.5 46 m 1
 150.5 -31 101 -91 90 -108 c 1
 63 -93 l 1
 73 -78 98 -41 98 -6 c 0
 69.0195 -6 45.5 17.0195 45.5 46 c 0
 45.5 74.9805 69.0195 98.5 98 98.5 c 0
 126.98 98.5 150.5 74.9805 150.5 46 c 1
EndSplineSet
Fore
186.5 67 m 5
 186.5 -13 121.818 -82.3379 99 -100 c 5
 63 -79 l 5
 68.4287 -70.3789 90 -26 84 -14 c 5
 57 -8 27.5 17.3984 27.5 67 c 5
 27.5 105 63 145.5 105 145.5 c 5
 161 145.5 186.5 101 186.5 67 c 5
EndSplineSet
EndChar
StartChar: hyphen
Encoding: 45 45 13
Width: 469
Flags: W
HStem: 251 117<48 425>
Back
48 344 m 1
 379 344 l 1
 379 275 l 1
 48 275 l 1
 48 344 l 1
EndSplineSet
Fore
48 368 m 1
 425 368 l 1
 425 251 l 1
 48 251 l 1
 48 368 l 1
EndSplineSet
EndChar
StartChar: period
Encoding: 46 46 14
Width: 217
Flags: W
HStem: -16 21G<85.9199 130.08>
Back
45.5 46 m 0
 45.5 74.9805 69.0195 98.5 98 98.5 c 0
 126.98 98.5 150.5 74.9805 150.5 46 c 0
 150.5 17.0195 126.98 -6.5 98 -6.5 c 0
 69.0195 -6.5 45.5 17.0195 45.5 46 c 0
EndSplineSet
Fore
28 64 m 4
 28 108.16 63.8398 144 108 144 c 4
 152.16 144 188 108.16 188 64 c 4
 188 19.8398 152.16 -16 108 -16 c 4
 63.8398 -16 28 19.8398 28 64 c 4
EndSplineSet
EndChar
StartChar: slash
Encoding: 47 47 15
Width: 414
Flags: HW
Back
61 0 m 1
 -16 0 l 1
 334 754 l 0
 411 754 l 1
 61 0 l 1
EndSplineSet
Fore
119.642 0 m 5
 -20.3324 0 l 5
 299.305 753.991 l 4
 430 754 l 5
 119.642 0 l 5
EndSplineSet
KernsSLIF: 47 -70 0 0
EndChar
StartChar: zero
Encoding: 48 48 16
Width: 575
Flags: HW
HStem: -26 118<274.39 290> 624 118<288 290>
VStem: 44 131<369 391> 396 131<369 391>
Back
44 355 m 1
 44 555 131 729 279 729 c 1
 427 729 507 555 507 355 c 1
 507 156 423 -15 275 -15 c 1
 127 -15 44 156 44 355 c 1
121 355 m 1
 121 219 167 54 275 54 c 1
 384 54 430 219 430 355 c 1
 430 492 388 660 279 660 c 1
 171 660 121 492 121 355 c 1
EndSplineSet
Fore
44 369 m 1
 44 568.465 134.332 730 288 730 c 5
 443.14 730 527 568.465 527 369 c 1
 527 156.554 439.379 -16 285 -16 c 1
 130.593 -16 44 156.554 44 369 c 1
175 369 m 1
 175 243.844 207.857 102 285 102 c 1
 363.058 102 396 243.844 396 369 c 1
 396 483.541 365.96 612 288 612 c 5
 210.759 612 175 483.541 175 369 c 1
EndSplineSet
EndChar
StartChar: one
Encoding: 49 49 17
Width: 575
Flags: HW
Back
279 623 m 1
 177 537 l 1
 133 584 l 1
 280 711 l 1
 356 711 l 1
 356 0 l 1
 279 0 l 1
 279 623 l 1
EndSplineSet
Fore
245 548.646 m 1
 182 490 l 1
 98 584 l 1
 246.741 711 l 1
 376 711 l 1
 376 0 l 1
 245 0 l 1
 245 548.646 l 1
EndSplineSet
EndChar
StartChar: two
Encoding: 50 50 18
Width: 575
Flags: HW
Back
134 539 m 9
 65 569 l 17
 90 658 174 730 273 730 c 1
 363 730 478 656 478 479 c 1
 478 378 394 304 326 221 c 1
 195 69 l 1
 501 69 l 17
 501 0 l 1
 48 0 l 1
 292 285 l 17
 346 344 403 402 403 479 c 0
 403 600 345 661 273 661 c 1
 211 661 156 620 134 539 c 9
EndSplineSet
Fore
187 526 m 9
 70.7949 560.327 l 17
 93.6562 657.438 186.47 731 277 731 c 1
 373.146 731 496 654.641 496 472 c 1
 496 396 420 294 368.158 220.443 c 1
 287.651 117 l 1
 518 117 l 17
 518 0 l 1
 44.9512 0 l 1
 276 298 l 17
 298 330 368 422 368 472 c 0
 368 562 327.4 614 277 614 c 1
 235.049 614 201.886 586.306 187 526 c 9
EndSplineSet
EndChar
StartChar: three
Encoding: 51 51 19
Width: 575
Flags: HW
Back
60 123 m 9xd0
 136 146 l 17
 161 92 219 54 272 54 c 1
 352 54 424 99 424 197 c 1xd0
 424 294 351 338 274 338 c 0
 236 338 l 1
 236 403 l 1
 274 403 l 0
 345 403 407 444 407 530 c 1
 407 606 363 663 273 663 c 1
 270 663 l 0
 219 663 167 636 146 586 c 9
 79 617 l 17
 113 684 192 731 273 731 c 1
 396 731 484 648 484 530 c 1xe0
 484 435 420 387 389 368 c 1
 432 355 501 300 501 197 c 1
 501 63 399 -15 272 -15 c 1
 196 -15 98 35 60 123 c 9xd0
EndSplineSet
Fore
60 160.251 m 9xd0
 186.267 194.142 l 17
 206.622 137.124 248.847 102 292 102 c 1
 364 102 406 135 406 207 c 1xd0
 406 279.234 347.16 318 264 318 c 0
 226 318 l 1
 226 422 l 1
 264 422.731 l 0
 335 422.731 377 443.267 377 522 c 1
 377 575 336 614 282 614 c 1
 279 614.4 l 0
 231 614.4 212 581 201 555.013 c 9
 79 587.519 l 17
 113 675.96 180 730 282 730 c 1
 426 730 508 648.806 508 522 c 1xe0
 508 438.791 447.699 403.749 418.49 387.107 c 1
 463.951 374.631 536.9 305.848 536.9 207 c 1
 536.9 71 446 -16 292 -16 c 1
 186 -16 98 44.6709 60 160.251 c 9xd0
EndSplineSet
EndChar
StartChar: four
Encoding: 52 52 20
Width: 575
Flags: HW
Back
417 705.688 m 1
 417 262 l 9
 509 262 l 17
 509 194 l 1
 417 194 l 1
 417 0 l 1
 340 0 l 1
 340 194 l 1
 38 194 l 9
 334 711 l 1
 340 711 l 1
 417 711 l 1
 420 711 l 1
 417 705.688 l 1
342 600.423 m 1
 153 263 l 1
 342 263 l 1
 342 600.423 l 1
EndSplineSet
Fore
451 706 m 1
 451 285.6 l 9
 543 285.6 l 17
 543 170 l 1
 451 170 l 1
 451 0 l 1
 320 0 l 1
 320 170 l 1
 20.3027 170 l 9
 310.208 711 l 1
 320 711 l 1
 450.9 711 l 1
 453.9 711 l 1
 451 706 l 1
323.5 499.684 m 1
 204.718 287 l 1
 323.5 287 l 1
 323.5 499.684 l 1
EndSplineSet
EndChar
StartChar: five
Encoding: 53 53 21
Width: 575
Flags: HW
Back
270 374 m 1
 208 374 133 348 89 328 c 9
 138 711 l 1
 466 711 l 1
 466 642 l 1
 200 642 l 1
 173 424 l 1
 200 438 232 440 273 440 c 1
 402 440 507 345 507 204 c 1
 507 102 423 -15 287 -15 c 1
 174 -15 83 65 56 161 c 9
 132 175 l 17
 149 125 191 54 287 54 c 1
 373 54 431 119 431 205 c 1
 431 300 354 374 270 374 c 1
EndSplineSet
Fore
289 351 m 1
 218 355 138.049 336.406 78 322 c 9
 142.511 711 l 1
 476 711 l 1
 476 594 l 1
 247 594 l 1
 220 452 l 1
 246 464 250.387 463 291 463 c 1
 425.513 463 545 362.364 545 213 c 1
 545 101.685 454 -15 301 -15 c 1
 140 -15 75.1562 66.9404 36 178.47 c 9
 165.588 201.02 l 17
 184 144 216 103 301 103 c 1
 362 103 416 144.517 416 214 c 1
 416 291.012 362 351 289 351 c 1
EndSplineSet
EndChar
StartChar: six
Encoding: 54 54 22
Width: 575
Flags: W
HStem: -16 115<271 299> 320 118<281 299>
VStem: 58 131<191.823 225> 385 131<207 211>
DStem: 271.906 728.815 378 668 122.536 448.798 243 430
Back
424 199 m 1
 424 278 362 346 275 346 c 1
 188 346 131 274 131 201 c 1
 131 118 198 58 276 58 c 1
 366 58 424 130 424 199 c 1
208 404 m 1
 230 413 246 419 275 419 c 0
 396 419 497 323 497 199 c 1
 497 98 410 -15 274 -15 c 1
 144 -15 58 94 58 200 c 1
 58 300 117 383 140 425 c 1
 313 740 l 9
 375 703 l 17
 208 404 l 1
EndSplineSet
Fore
385 207 m 1
 385 267.728 347.477 320 285 320 c 1
 222.771 320 189 264.883 189 209 c 1
 189 145.154 230.055 99 286 99 c 1
 350.459 99 385 154.149 385 207 c 1
243 430 m 1
 244.505 431.789 286.016 438 288 438 c 0
 427.417 438 516 340.582 516 207 c 1
 516 97.0327 425.879 -16 285 -16 c 1
 148.38 -16 58 92.6326 58 208 c 1
 58 322 98 398 122.536 448.798 c 1
 271.906 728.815 l 13
 378 668 l 21
 243 430 l 1
EndSplineSet
EndChar
StartChar: seven
Encoding: 55 55 23
Width: 575
Flags: HW
Back
522 711 m 1
 251 0 l 1
 162 0 l 1
 414 638 l 1
 49 638 l 1
 49 711 l 1
 522 711 l 1
EndSplineSet
Fore
536.95 711 m 1
 316.812 0 l 1
 158.639 0 l 1
 343.298 587 l 1
 49 587 l 1
 49 711 l 1
 536.95 711 l 1
EndSplineSet
EndChar
StartChar: eight
Encoding: 56 56 24
Width: 575
Flags: HW
HStem: -26 118<261 295> 628 117<276 280>
VStem: 22 131<209 215>
Back
279 54 m 0xf2
 368 54 441 115 441 201 c 1
 441 288 364 353 281 353 c 1
 193 353 123 287 123 201 c 0
 123 112 195 54 279 54 c 0xf2
155 541 m 1xec
 155 467 210 418 281 418 c 1
 351 418 406 465 406 541 c 1
 406 605 364 662 280 662 c 1
 199 662 155 603 155 541 c 1xec
280 731 m 1
 403 731 483 651 483 541 c 1xec
 483 446 425 407 399 384 c 1
 437 355 518 299 518 201 c 1
 518 72 407 -15 279 -15 c 1
 151 -15 46 74 46 201 c 1xf2
 46 295 120 355 161 384 c 1
 130 412 78 448 78 541 c 1
 78 648 158 731 280 731 c 1
EndSplineSet
Fore
288 92 m 4
 362.167 92 412 140.551 412 209 c 5
 412 278.257 352 330 287.9 330 c 5
 208 330 164 277.461 164 209 c 4
 164 140 214 92 288 92 c 4
191.9 542 m 5
 191.9 483.943 229.297 450.5 287.9 450.5 c 5
 342.836 450.5 384 482.374 384 542 c 5
 384 590.132 353 625 287 625 c 5
 220.191 625 191.9 588.628 191.9 542 c 5
287 732 m 5
 422 732 514.9 654 514.9 542 c 5
 514.9 456 451 410 423.429 391.61 c 5
 475 378 542.9 300 542.9 209 c 5
 541 60 428.407 -16 286 -16 c 5
 128.335 -16 33 76 33 209 c 5
 33 297.57 104 380 152.74 391.429 c 5
 124 408 61 460 61 542 c 5
 61 658 150 732 287 732 c 5
EndSplineSet
EndChar
StartChar: nine
Encoding: 57 57 25
Width: 575
Flags: HW
HStem: 275 118<289 299> 614 115<289 307>
VStem: 66 131<506 515> 393 131<497 515>
DStem: 339 283 459.464 264.202 208.906 46.8154 315 -14
Back
138 514 m 1
 138 435 200 367 287 367 c 1
 374 367 431 439 431 512 c 1
 431 595 364 655 286 655 c 1
 196 655 138 583 138 514 c 1
354 309 m 1
 332 300 316 294 287 294 c 0
 166 294 65 390 65 514 c 1
 65 615 152 728 288 728 c 1
 418 728 504 619 504 513 c 1
 504 413 445 330 422 288 c 1
 249 -27 l 9
 187 10 l 17
 354 309 l 1
EndSplineSet
Fore
197 506 m 1
 197 445.272 234.523 393 297 393 c 1
 359.229 393 393 448.117 393 504 c 1
 393 567.846 351.945 614 296 614 c 1
 231.541 614 197 558.851 197 506 c 1
339 283 m 1
 337.495 281.211 295.984 275 294 275 c 0
 154.583 275 66 372.418 66 506 c 1
 66 615.967 156.121 729 297 729 c 1
 433.62 729 524 620.367 524 505 c 1
 524 365 472 291 459.464 264.202 c 1
 315 -14 l 9
 208.906 46.8154 l 17
 339 283 l 1
EndSplineSet
EndChar
StartChar: less
Encoding: 60 60 28
Width: 422
Flags: HW
Back
284 11 m 1
 36 310 l 1
 284 603 l 1
 381 603 l 1
 132 309 l 1
 381 11 l 1
 284 11 l 1
EndSplineSet
Fore
226 11 m 1
 22.0806 310.659 l 1
 225.978 603.274 l 1
 388 604 l 1
 183.519 309.143 l 1
 387.398 11.7852 l 1
 226 11 l 1
EndSplineSet
EndChar
StartChar: equal
Encoding: 61 61 29
Width: 443
Flags: HW
Back
27 244 m 1
 418 244 l 1
 418 175 l 1
 27 175 l 1
 27 244 l 1
27 423 m 1
 418 423 l 1
 418 354 l 1
 27 354 l 1
 27 423 l 1
EndSplineSet
Fore
27 268 m 1
 418 268 l 1
 418 151 l 1
 27 151 l 1
 27 268 l 1
27 447 m 1
 418 447 l 1
 418 330 l 1
 27 330 l 1
 27 447 l 1
EndSplineSet
EndChar
StartChar: greater
Encoding: 62 62 30
Width: 422
Flags: HW
Back
137 10 m 1
 40 10 l 1
 288 309 l 1
 40 603 l 1
 137 603 l 1
 384 310 l 1
 137 10 l 1
EndSplineSet
Fore
192 10 m 1
 27.0146 10.6748 l 1
 232.815 308.816 l 1
 27 605 l 1
 192.371 603.241 l 1
 393.926 310.79 l 1
 192 10 l 1
EndSplineSet
EndChar
StartChar: question
Encoding: 63 63 31
Width: 505
Flags: HW
HStem: 612 119<242 264>
VStem: 343 137<534 548>
Back
129.27 533.76 m 0
 129.27 585.552 182.513 629.67 248.115 629.67 c 4
 313.718 629.67 366.96 585.552 366.96 533.76 c 0
 366.96 481.969 313.718 439.935 248.115 439.935 c 0
 182.513 439.935 129.27 481.969 129.27 533.76 c 0
25.0195 533.76 m 0
 25.0195 641.946 124.032 729.75 246.03 729.75 c 0
 368.027 729.75 467.04 641.946 467.04 533.76 c 0
 467.04 425.573 368.027 337.77 246.03 337.77 c 0
 124.032 337.77 25.0195 425.573 25.0195 533.76 c 0
EndSplineSet
Fore
312 259 m 1
 312 195 l 1
 181 195 l 1
 181 290 l 0
 181 408 343 419 343 534 c 1
 343 592 292 612 246 612 c 1
 193 612 158 572 154 522 c 1
 23 542 l 1
 35 648 116 731 244 731 c 1
 364 731 480 665 480 536 c 1
 481 355 312 350 312 259 c 1
EndSplineSet
Ref: 46 46 N 1 0 0 1 148 0
EndChar
StartChar: at
Encoding: 64 64 32
Width: 825
Flags: HW
Back
569 104 m 1xbf80
 607 54 l 17
 545 9 470 -17 388 -17 c 0
 181 -17 15 150 15 357 c 0
 15 563 181 730 388 730 c 0
 594 730 761 563 761 357 c 0
 761 271 689 204 622 204 c 0xbf80
 586 204 543 225 517 253 c 1
 488 214 440 190 388 190 c 0xdf80
 296 190 221 265 221 357 c 0
 221 448 296 523 388 523 c 0
 480 523 546 444 546 357 c 0
 546 315 579 267 619 267 c 0
 660 267 698 306 698 357 c 0
 698 523 563 668 388 668 c 0
 213 668 77 523 77 355 c 0
 77 188 213 45 388 45 c 0
 450 45 522 71 569 104 c 1xbf80
284 357 m 0
 284 296 332 252 388 252 c 0xdf80
 448 252 485 300 485 357 c 0
 485 411 438 462 388 462 c 0
 334 462 284 415 284 357 c 0
EndSplineSet
Fore
574 127 m 1xbf80
 628.945 55.1768 l 17
 565.262 10.0645 502 -16 404 -16 c 0
 188.121 -16 15 146.679 15 357 c 0
 15 566.866 188.121 730 404 730 c 0
 618.836 730 787 573.134 787 371 c 0
 787 264.765 712.712 182 638 182 c 0xbf80
 604.318 182 564.087 201.286 539.761 244.334 c 1
 509.241 189.651 458.725 169 404 169 c 0xdf80
 295.473 169 207 253.431 207 357 c 0
 207 454.03 295.473 534 404 534 c 0
 512.711 534 590.7 453.23 590.7 364.28 c 0
 590.7 329.15 611.178 289 636 289 c 0
 661.949 289 686 324.533 686 371 c 0
 686 521.521 563.194 646 404 646 c 0
 244.193 646 113 515.412 113 356 c 4
 113 195.465 244.193 65 404 65 c 0
 472 65 540 97 574 127 c 1xbf80
314 357 m 0
 314 305.295 355.538 268 404 268 c 0xdf80
 455.34 268 487 311.886 487 364 c 0
 487 410.286 446.784 442 404 442 c 0
 357.269 442 314 410.581 314 357 c 0
EndSplineSet
EndChar
StartChar: A
Encoding: 65 65 0
Width: 694
Flags: HW
Back
318 613 m 1
 221 303 l 1
 416 303 l 1
 318 613 l 1
438 247 m 1
 195 247 l 0
 111 0 l 0
 30 0 l 1
 286 711 l 0
 286 711 323.82 711 348 711 c 17
 604 0 l 1
 521 0 l 1
 438 247 l 1
EndSplineSet
Fore
341.265 511.733 m 1
 263.816 305 l 1
 410.155 305 l 1
 341.265 511.733 l 1
447 185 m 1
 228 185 l 0
 161.401 0 l 0
 10 0 l 1
 284.666 711 l 1
 409.666 711 l 1
 657.666 0 l 1
 507.638 0 l 1
 447 185 l 1
EndSplineSet
KernsSLIF: 67 -39 0 0 119 -46 0 0 118 -80 0 0 86 -104 0 0 84 -48 0 0
EndChar
StartChar: B
Encoding: 66 66 1
Width: 599
Flags: W
HStem: 0 117<189 315> 322 116<269 289.583> 595 116<58 283>
VStem: 58 131<0 322 0 595> 439 129<217 225>
Back
135 345 m 1xf4
 135 69 l 1
 291 69 l 1
 434 69 453 146 453 210 c 0
 453 275 408 344 291 344 c 1
 278 344 151 345 135 345 c 1xf4
135 643 m 1
 135 413 l 1
 154 413 235 412 251 412 c 1
 409 412 414 492 414 530 c 1xf8
 414 573 399 642 241 642 c 1
 226 642 153 643 135 643 c 1
58 711 m 1
 241 711 l 1
 456 711 492 606 492 530 c 1xf8
 492 450 421 382 368 382 c 1
 488 382 529 265 529 207 c 1xf4
 529 140 508 0 291 0 c 1
 58 0 l 1
 58 711 l 1
EndSplineSet
Fore
189 322 m 1
 189 117 l 1
 300 117 l 1
 408 117 439 175.794 439 223 c 0
 439 271.022 390 322 300 322 c 1
 189 322 l 1
189 595.4 m 1
 189 437.6 l 1
 269 438 l 1
 358 438 386 490 386 517 c 1
 386 542.339 368 595 261 595 c 1
 249.396 595 202.925 595.4 189 595.4 c 1
58 711 m 1
 261 711 l 1
 480 711 515.3 600 515.3 527.544 c 1
 515.3 452 476 402 420 384.121 c 1
 520 360 568 276 568 219 c 1
 568 144 552 0 300 0 c 1
 58 0 l 1
 58 711 l 1
EndSplineSet
EndChar
StartChar: C
Encoding: 67 67 2
Width: 640
Flags: HW
Back
555 108 m 0
 508 36 449 -15 337 -15 c 1
 138 -15 44 173 44 354 c 1
 44 540 133 730 338 730 c 0
 447 730 505 684 549 615 c 9
 485 583 l 2
 456 624 396 661 338 661 c 1
 194 661 125 507 125 354 c 1
 125 202 204 54 337 54 c 1
 407 54 447 77 490 144 c 9
 515.35 129.96 555 108 555 108 c 0
EndSplineSet
Fore
601.7 151.457 m 0
 562 66 490 -16 354 -16 c 1
 122 -16 44 174.737 44 368 c 1
 44 553.505 126 731 355 731 c 4
 478 731 562 656 595.7 579.752 c 13
 471 536 l 6
 446.143 577 398 614 355 614 c 5
 222 614 182 496.58 182 368 c 1
 182 228.16 232 102 354 102 c 1
 406 102 446 148 474.991 200.008 c 9
 524.408 181.073 601.7 151.457 601.7 151.457 c 0
EndSplineSet
EndChar
StartChar: D
Encoding: 68 68 3
Width: 622
Flags: HW
Back
479 355 m 1
 479 525 389 642 263 642 c 1
 133 642 l 1
 133 69 l 1
 263 69 l 1
 389 69 479 186 479 355 c 1
560 355 m 1
 560 156 439 0 263 0 c 1
 56 0 l 1
 56 711 l 1
 263 711 l 1
 442 711 560 555 560 355 c 1
EndSplineSet
Fore
446 367 m 5
 446 497.906 378.5 594 284 594 c 1
 187 594 l 1
 187 117 l 1
 284 117 l 1
 378.5 117 446 215.727 446 367 c 5
584 367 m 5
 584 157.91 461.778 0 284 0 c 1
 56 0 l 1
 56 711 l 1
 284 711 l 1
 464.808 711 584 556.888 584 367 c 5
EndSplineSet
EndChar
StartChar: E
Encoding: 69 69 4
Width: 616
Flags: HW
Back
56 711 m 0
 506 711 l 1
 506 642 l 0
 133 642 l 0
 133 399 l 1
 485 399 l 1
 485 330 l 0
 133 330 l 0
 133 69 l 0
 506 69 l 0
 506 0 l 0
 56 0 l 1
 56 711 l 0
EndSplineSet
Fore
56 711 m 0
 560 711 l 1
 560 594 l 0
 187 594 l 0
 187 423 l 1
 539 423 l 1
 539 306 l 0
 187 306 l 0
 187 117 l 0
 560 117 l 0
 560 0 l 0
 56 0 l 1
 56 711 l 0
EndSplineSet
KernsSLIF: 82 20 0 0
EndChar
StartChar: F
Encoding: 70 70 5
Width: 606
Flags: HW
Back
56 711 m 1
 506 711 l 1
 506 642 l 25
 133 642 l 25
 133 399 l 1
 485 399 l 1
 485 330 l 25
 133 330 l 1
 133 0 l 1
 56 0 l 1
 56 711 l 1
EndSplineSet
Fore
56 711 m 1
 560 711 l 1
 560 594 l 25
 187 594 l 25
 187 423 l 1
 549 423 l 5
 549 306 l 29
 187 306 l 1
 187 0 l 1
 56 0 l 1
 56 711 l 1
EndSplineSet
EndChar
StartChar: G
Encoding: 71 71 6
Width: 694
Flags: HW
Back
337 -14 m 0
 123 -14 44 190 44 357 c 1
 44 523 123 730 338 730 c 0
 447 730 506 684 550 615 c 9
 488 582 l 2
 458 623 396 661 338 661 c 1
 192 661 125 490 125 357 c 1
 125 223 192 54 337 54 c 0
 490 54 521 210 521 301 c 1
 333 301 l 1
 333 370 l 1
 601 370 l 1
 601 328 l 1
 601 174 536 -14 337 -14 c 0
EndSplineSet
Fore
348 -13 m 4
 125.966 -13 44 193.747 44 372 c 1
 44 537.11 125.956 731 349 731 c 0
 448.385 731 537.881 676.749 578 586 c 9
 452 544 l 17
 442 580 378 614 349 614 c 1
 234.531 614 182 483.125 182 372 c 1
 182 248.172 234.462 103 348 103 c 4
 468.571 103 493 208.842 493 277 c 1
 345 277 l 1
 345 394 l 1
 629 394 l 1
 629 322.9 l 1
 629 166.694 559.814 -13 348 -13 c 4
EndSplineSet
KernsSLIF: 84 -33 0 0
EndChar
StartChar: H
Encoding: 72 72 7
Width: 612
Flags: HW
Back
56 711 m 0
 133 711 l 1
 133 398 l 1
 456 398 l 1
 456 711 l 1
 533 711 l 1
 533 0 l 1
 456 0 l 1
 456 329 l 0
 133 329 l 1
 133 0 l 1
 56 0 l 1
 56 711 l 0
EndSplineSet
Fore
56 711 m 0
 187 711 l 1
 187 422 l 1
 424 422 l 1
 424 711 l 1
 555 711 l 1
 555 0 l 1
 424 0 l 1
 424 305 l 0
 187 305 l 1
 187 0 l 1
 56 0 l 1
 56 711 l 0
EndSplineSet
EndChar
StartChar: I
Encoding: 73 73 8
Width: 271
Flags: HW
Back
70 0 m 1
 70 711 l 1
 147 711 l 1
 147 0 l 1
 70 0 l 1
EndSplineSet
Fore
70 0 m 1
 70 711 l 1
 201 711 l 1
 201 0 l 1
 70 0 l 1
EndSplineSet
EndChar
StartChar: J
Encoding: 74 74 9
Width: 611
Flags: HW
Back
50 261 m 0
 119 261 l 1
 119 165 178 63 271 63 c 1
 365 63 420 163 420 261 c 2
 420 711 l 1
 497 711 l 1
 497 261 l 2
 497 102 405 -10 271 -10 c 1
 138 -10 50 108 50 261 c 0
EndSplineSet
Fore
50 286 m 4
 167.3 286 l 5
 167.3 199.212 200 107 301 107 c 5
 395 107 420 197.404 420 286 c 6
 420 711 l 5
 551 711 l 5
 551 286 l 6
 551 108.225 467.018 -17 301 -17 c 5
 126 -14 50 114.934 50 286 c 4
EndSplineSet
EndChar
StartChar: K
Encoding: 75 75 10
Width: 651
Flags: HW
HStem: 0 21G<56 187 465.741 630.101> 691 20G<56 187 452.39 606>
VStem: 56 131<0 268 0 711>
DStem: 224.742 313.267 319.799 396.355 465.741 0 630.101 0
Back
56 711 m 0
 133 711 l 1
 133 365 l 1
 479 711 l 1
 570 711 l 1
 238 368 l 1
 586 0 l 1
 491 0 l 1
 184 321 l 1
 133 269 l 1
 133 0 l 1
 56 0 l 1
 56 711 l 0
EndSplineSet
Fore
56 711 m 0
 187 711 l 1
 187 406.616 l 5
 452.39 711 l 1
 606 711 l 1
 319.799 370.355 l 5
 630.101 0 l 1
 465.741 0 l 1
 224.742 287.267 l 5
 187 242 l 5
 187 0 l 1
 56 0 l 1
 56 711 l 0
EndSplineSet
KernsSLIF: 79 -53 0 0
EndChar
StartChar: L
Encoding: 76 76 11
Width: 596
Flags: HW
Back
56 711 m 1
 133 711 l 1
 133 69 l 1
 507 69 l 1
 507 0 l 1
 56 0 l 1
 56 711 l 1
EndSplineSet
Fore
56 711 m 1
 187 711 l 1
 187 117 l 1
 561 117 l 1
 561 0 l 1
 56 0 l 1
 56 711 l 1
EndSplineSet
EndChar
StartChar: M
Encoding: 77 77 1
Width: 756
Flags: HW
Back
32 0 m 1
 32 711 l 2
 137 711 l 1
 361 102 l 2
 586 711 l 1
 687 711 l 1
 687 0 l 1
 612 0 l 25
 612 588 l 1
 403 8 l 0
 316 8 l 1
 107 588 l 0
 107 0 l 1
 32 0 l 1
EndSplineSet
Fore
32 0 m 1
 32 711 l 2
 207.908 711 l 1
 378.25 207.055 l 6
 552.845 711 l 1
 728 711 l 1
 728 0 l 1
 600 0 l 25
 600 487.847 l 1
 445 -1 l 0
 313 -1 l 1
 160 482.491 l 0
 160 0 l 1
 32 0 l 1
EndSplineSet
EndChar
StartChar: N
Encoding: 78 78 2
Width: 656
Flags: W
HStem: 0 21G<58 189 466.723 596> 691 20G<58 185.078 465 596>
VStem: 58 131<0 475> 465 131<252 711>
Back
58 0 m 1
 58 711 l 2
 133 711 l 1
 494 144 l 25
 494 711 l 1
 571 711 l 1
 571 0 l 0
 500 0 l 1
 135 581 l 0
 135 0 l 1
 58 0 l 1
EndSplineSet
Fore
58 0 m 1
 58 711 l 2
 185.078 711 l 1
 465 252.168 l 25
 465 711 l 1
 596 711 l 1
 596 0 l 0
 466.723 0 l 1
 189 475.021 l 0
 189 0 l 1
 58 0 l 1
EndSplineSet
EndChar
StartChar: O
Encoding: 79 79 3
Width: 688
Flags: HW
Back
539 354 m 0
 539 486 492 661 334 661 c 0
 177 661 130 486 130 354 c 1
 130 223 178 54 334 54 c 1
 491 54 539 223 539 354 c 0
49 354 m 1
 49 511 125 730 334 730 c 1
 544 730 620 511 620 354 c 1
 620 198 543 -15 334 -15 c 1
 126 -15 49 198 49 354 c 1
EndSplineSet
Fore
511 368 m 0
 511 478.932 474.629 610 349 610 c 0
 224.324 610 187 478.932 187 368 c 1
 187 247.48 225.118 104 349 104 c 1
 473.834 104 511 247.48 511 368 c 0
49 368 m 1
 49 524.582 129 727 349 727 c 1
 570.014 727 649 524.582 649 368 c 1
 649 201.431 568.962 -14 349 -14 c 1
 130.053 -14 49 201.431 49 368 c 1
EndSplineSet
KernsSLIF: 65 -48 0 0 84 -55 0 0
EndChar
StartChar: P
Encoding: 80 80 4
Width: 561
Flags: HW
Back
136 378 m 1
 207 378 l 1
 367 378 425 427 425 511 c 1
 425 594 367 642 207 642 c 1
 136 642 l 1
 136 378 l 1
59 711 m 0
 136 711 l 1
 207 711 l 1
 390 711 504 636 504 511 c 0
 504 388 390 308 207 308 c 1
 136 308 l 1
 136 0 l 1
 59 0 l 1
 59 711 l 0
EndSplineSet
Fore
190 402 m 1
 239 402 l 1
 348.358 402 388 450 388 503 c 1
 388 554.321 348.358 594 239 594 c 1
 190 594 l 1
 190 402 l 1
59 711 m 0
 190 711 l 1
 239 711 l 1
 413.374 711 522 622 522 503 c 0
 522 384 413.374 283 239 283 c 1
 190 283 l 1
 190 0 l 1
 59 0 l 1
 59 711 l 0
EndSplineSet
KernsSLIF: 65 -67 0 0
EndChar
StartChar: Q
Encoding: 81 81 5
Width: 702
Flags: HW
Back
511 368 m 4
 511 478.932 474.629 626 349 626 c 4
 224.324 626 187 478.932 187 368 c 5
 187 247.48 225.118 92 349 92 c 5
 473.834 92 511 247.48 511 368 c 4
49 368 m 5
 49 524.582 129 743 349 743 c 5
 570.014 743 649 524.582 649 368 c 5
 649 201.431 568.962 -26 349 -26 c 5
 130.053 -26 49 201.431 49 368 c 5
EndSplineSet
Fore
511 368 m 1
 511 498 462 613 351 613 c 5
 228 613 188 488 188 368 c 1
 188 257.6 222 101 348 101 c 1
 359.58 101 396 103 413 119 c 1
 335 177 l 1
 406.723 272.957 l 1
 484 209 l 1
 500 239 511 320.759 511 368 c 1
48 368 m 1
 48 513.601 124 730 351 730 c 5
 562 730 647 540 647 368 c 1
 647 254 616 171 586 127 c 1
 652.403 78.4072 l 1
 579 -14 l 1
 514 39 l 1
 478 7 418 -17 346 -17 c 1
 142 -17 48 188.034 48 368 c 1
EndSplineSet
EndChar
StartChar: R
Encoding: 82 82 6
Width: 591
Flags: HW
Back
136 378 m 1
 207 378 l 1
 367 378 425 427 425 511 c 1
 425 594 367 642 207 642 c 1
 136 642 l 1
 136 378 l 1
450.457 0 m 1
 240 310 l 1
 205.333 306.491 170.667 308 136 308 c 1
 136 0 l 1
 59 0 l 1
 59 711 l 0
 136 711 l 1
 207 711 l 1
 390 711 505 636 505 511 c 0
 505 416.984 434 347 323 320 c 1
 539.237 0 l 1
 450.457 0 l 1
EndSplineSet
Fore
190 402 m 1
 238 402 l 1
 347.358 402 387 442.895 387 513 c 1
 387 564.321 347.358 594 238 594 c 1
 190 594 l 1
 190 402 l 1
419.138 0 m 1
 231.241 282.684 l 1
 217.494 283.239 203.747 283 190 283 c 1
 190 0 l 1
 59 0 l 1
 59 711 l 0
 190 711 l 1
 238 711 l 1
 413.017 711 523 636.75 523 513 c 0
 523 412.495 455.478 337.681 349.916 308.817 c 1
 568.129 0 l 5
 419.138 0 l 1
EndSplineSet
EndChar
StartChar: S
Encoding: 83 83 7
Width: 587
Flags: HW
Back
43 142 m 1
 107 181 l 1
 151 113 198 54 293 54 c 1
 382 54 451 117 451 194 c 1
 451 268 379 317 260 348 c 0
 173 371 56 414 56 535 c 1
 56 658 167 730 281 730 c 1
 400 730 456 678 502 610 c 1
 443 571 l 1
 414 621 357 661 279 661 c 1
 204 661 135 619 135 535 c 1
 135 446 249 424 314 402 c 0
 413 369 530 325 530 194 c 1
 530 72 417 -15 293 -15 c 1
 186 -15 108 40 43 142 c 1
EndSplineSet
Fore
43 177.723 m 1
 163.945 218.2 l 1
 197 148 226 104 303 104 c 1
 378 104 416 146 416 202 c 1
 416 257.74 361.34 302.649 271 326 c 0
 179.309 349.984 56 405.824 56 532 c 1
 56 665.282 173.699 728.3 294.579 728.3 c 1
 406.644 728.3 483.381 680.016 526.7 592.029 c 1
 398.286 553.993 l 1
 377.546 591.219 348.782 611 293 611 c 1
 239.354 611 190 594.667 190 532 c 1
 190 468.287 278.48 441.538 328.93 425.788 c 0
 430.253 391.553 550 337.905 550 202 c 1
 550 70 440 -14 303 -14 c 1
 168 -14 90 60 43 177.723 c 1
EndSplineSet
EndChar
StartChar: T
Encoding: 84 84 8
Width: 661
Flags: HW
Back
38 711 m 0
 571 711 l 1
 571 642 l 0
 348 642 l 1
 348 0 l 1
 271 0 l 1
 271 642 l 1
 38 642 l 1
 38 711 l 0
EndSplineSet
Fore
38 711 m 0
 625 711 l 1
 625 594 l 0
 402 594 l 1
 402 0 l 1
 271 0 l 1
 271 594 l 1
 38 594 l 1
 38 711 l 0
EndSplineSet
KernsSLIF: 117 -66 0 0 65 -54 0 0
EndChar
StartChar: U
Encoding: 85 85 9
Width: 658
Flags: W
HStem: -14 118<321 327> 691 20G<54 188 454 588>
VStem: 54 134<339 711> 454 134<339 711>
Back
485 711 m 1
 564 711 l 1
 564 323 l 1
 564 117 469 -15 309 -15 c 0
 149 -15 54 117 54 323 c 1
 54 711 l 1
 133 711 l 1
 133 323 l 1
 133 142 214 54 309 54 c 1
 404 54 485 142 485 323 c 1
 485 711 l 1
EndSplineSet
Fore
454 711 m 5
 588 711 l 5
 588 339 l 5
 588 116.544 488.529 -14 321 -14 c 4
 153.471 -14 54 116.544 54 339 c 5
 54 711 l 5
 188 711 l 5
 188 339 l 5
 188 172.803 249.21 104 321 104 c 5
 392.79 104 454 172.803 454 339 c 5
 454 711 l 5
EndSplineSet
EndChar
StartChar: V
Encoding: 86 86 10
Width: 636
Flags: HW
Back
494 711 m 1
 574 711 l 1
 359 0 l 1
 252 0 l 1
 34 711 l 1
 117 711 l 1
 305 82 l 1
 494 711 l 1
EndSplineSet
Fore
465.311 711 m 1
 601 711 l 1
 397.404 0 l 1
 242.908 0 l 1
 34 711 l 1
 175.25 711 l 1
 319.456 200.562 l 1
 465.311 711 l 1
EndSplineSet
KernsSLIF: 101 -32 0 0 65 -119 0 0 69 -34 0 0
EndChar
StartChar: W
Encoding: 87 87 11
Width: 815
Flags: HW
Back
36 711 m 1
 111 711 l 1
 204 109 l 0
 343 693 l 1
 428 693 l 0
 567 109 l 1
 660 711 l 25
 735 711 l 1
 623 0 l 1
 516 0 l 1
 386 580 l 2
 256 0 l 1
 147 0 l 2
 36 711 l 1
EndSplineSet
Fore
36 711 m 1
 173.497 711 l 1
 241.729 262.749 l 0
 343.199 698.283 l 1
 481.142 697.911 l 0
 591.276 259.766 l 1
 660.529 711 l 25
 776.005 711 l 5
 660.161 0 l 5
 507.983 0 l 1
 400.5 456.769 l 2
 292.309 0 l 1
 148.063 0 l 2
 36 711 l 1
EndSplineSet
KernsSLIF: 101 -13 0 0 65 -47 0 0
EndChar
StartChar: X
Encoding: 88 88 12
Width: 634
Flags: HW
Back
31 711 m 0
 120 711 l 1
 297 415 l 1
 470 711 l 1
 559 711 l 1
 338 356 l 1
 562 0 l 1
 469 0 l 1
 297 286 l 1
 121 0 l 1
 34 0 l 1
 256 356 l 1
 31 711 l 0
EndSplineSet
Fore
29 711 m 0
 179.717 711 l 1
 311.148 466.093 l 1
 444.064 711 l 1
 595 711 l 1
 388.367 354.991 l 1
 598.104 0 l 5
 433.58 0 l 1
 311.184 224.474 l 1
 190.615 0 l 1
 25.6401 0 l 1
 234.433 355 l 1
 29 711 l 0
EndSplineSet
EndChar
StartChar: Y
Encoding: 89 89 13
Width: 642
Flags: W
HStem: 0 21G<258 389> 691 20G<32 171.57 473.556 610>
VStem: 258 131<0 344>
Back
32 711 m 1
 114 711 l 1
 288 418 l 1
 462 711 l 1
 544 711 l 1
 326 365 l 1
 326 0 l 1
 249 0 l 1
 249 365 l 1
 32 711 l 1
EndSplineSet
Fore
32 711 m 1
 171.57 711 l 1
 322.784 448.628 l 5
 473.556 711 l 1
 610 711 l 1
 389 344 l 1
 389 0 l 1
 258 0 l 1
 258 344 l 1
 32 711 l 1
EndSplineSet
KernsSLIF: 65 -93 0 0 97 -62 0 0
EndChar
StartChar: Z
Encoding: 90 90 14
Width: 692
Flags: HW
Back
58 711 m 1
 597 711 l 1
 175 69 l 1
 603 69 l 1
 603 0 l 1
 44 0 l 1
 470 642 l 1
 58 642 l 1
 58 711 l 1
EndSplineSet
Fore
68 711 m 1
 637.626 711 l 1
 247.86 117 l 1
 635 117 l 1
 635 0 l 1
 35.3973 -5.20417e-18 l 1
 426 594 l 1
 68 594 l 1
 68 711 l 1
EndSplineSet
EndChar
StartChar: bracketleft
Encoding: 91 91 15
Width: 363
Flags: HW
Back
252 -47 m 0
 59 -47 l 1
 59 747 l 0
 252 747 l 1
 252 678 l 1
 132 678 l 1
 132 21 l 1
 252 21 l 1
 252 -47 l 0
EndSplineSet
Fore
304.1 -48 m 0
 59 -48 l 1
 59 748 l 0
 304.1 748 l 1
 304.1 631 l 1
 183 631 l 1
 183 68 l 1
 304.1 68 l 1
 304.1 -48 l 0
EndSplineSet
EndChar
StartChar: backslash
Encoding: 92 92 16
Width: 418
Flags: HW
Back
332 0 m 1
 -19 754 l 1
 65 754 l 0
 415 0 l 1
 332 0 l 1
EndSplineSet
Fore
285.879 0 m 1
 -19 754 l 1
 123.467 753.419 l 0
 437.154 0 l 1
 285.879 0 l 1
EndSplineSet
KernsSLIF: 92 -70 0 0
EndChar
StartChar: bracketright
Encoding: 93 93 17
Width: 363
Flags: HW
Back
58 -47 m 0
 58 22 l 1
 178 22 l 1
 178 678 l 1
 58 678 l 1
 58 747 l 1
 251 747 l 0
 251 -47 l 1
 58 -47 l 0
EndSplineSet
Fore
58 -48 m 0
 58 69 l 1
 178 69 l 1
 178 631 l 1
 58 631 l 1
 58 748 l 1
 302.1 748 l 0
 302.1 -48 l 1
 58 -48 l 0
EndSplineSet
EndChar
StartChar: asciicircum
Encoding: 94 94 18
Width: 528
Flags: W
DStem: 255.256 639.303 313.691 728.655 320 559 452 560.615
Back
396 561 m 1
 304 561 l 1
 228 665 l 1
 151 562 l 0
 60 562 l 1
 195 729 l 1
 259 729 l 1
 396 561 l 1
EndSplineSet
Fore
452 560.615 m 1
 320 559 l 1
 255.256 639.303 l 1
 195 562 l 0
 59.5732 562.086 l 1
 198.21 728.124 l 1
 313.691 728.655 l 1
 452 560.615 l 1
EndSplineSet
EndChar
StartChar: underscore
Encoding: 95 95 19
Width: 606
Flags: HW
Back
38 -113 m 1
 38 -44 l 1
 570 -44 l 1
 570 -113 l 1
 38 -113 l 1
EndSplineSet
Fore
38 -137 m 1
 38 -20 l 1
 570 -20 l 1
 570 -137 l 1
 38 -137 l 1
EndSplineSet
EndChar
StartChar: grave
Encoding: 96 96 20
Width: 303
Flags: W
DStem: 47 759 178.393 759.01 129 635 262.685 635.163
Back
211 635 m 1
 132 635 l 2
 47 759 l 2
 124 759 l 1
 211 635 l 1
EndSplineSet
Fore
262.685 635.163 m 5
 129 635 l 29
 47 759 l 29
 178.393 759.01 l 5
 262.685 635.163 l 5
EndSplineSet
EndChar
StartChar: a
Encoding: 97 97 21
Width: 508
Flags: HW
Back
155 186 m 0
 155 234.576 194.424 274 243 274 c 0
 291.576 274 331 234.576 331 186 c 0
 331 137.424 291.576 98 243 98 c 0
 194.424 98 155 137.424 155 186 c 0
48 184 m 0
 48 292.192 135.808 380 244 380 c 0
 352.192 380 440 292.192 440 184 c 0
 440 75.808 352.192 -12 244 -12 c 0
 135.808 -12 48 75.808 48 184 c 0
EndSplineSet
Fore
246 271 m 1
 186 271 154 231.38 154 184 c 1
 154 140 186 98 246 98 c 1
 294 98 332.5 138 332.5 183.7 c 1
 332.5 232.745 302 271 246 271 c 1
244 382 m 1
 293 382 314 373 330 357 c 1
 330 398 297 438 245 438 c 1
 183 438 164 426 126 414 c 9
 100 510 l 17
 158 532 164.729 538 244 538 c 1
 368 538 446.729 476 446.729 332 c 8
 446.729 260.538 446.368 148.764 446.368 148.764 c 0
 446.368 121.402 452 94 489.247 94 c 1
 490.5 -14 l 1
 430.754 -14 374 -6 357 36 c 1
 337 11 300 -14 246 -14 c 1
 132 -14 36 70 36 185 c 1
 36 294 122 382 244 382 c 1
EndSplineSet
KernsSLIF: 118 -60 0 0
EndChar
StartChar: b
Encoding: 98 98 22
Width: 528
Flags: HW
Back
132 0 m 17
 58 0 l 1
 58 710 l 1
 132 710 l 1
 132 439 l 17
 162 486 198 533 269 533 c 0
 392 533 451 402 451 264 c 0
 451 126 408 -14 250 -14 c 1
 170 -14 132 68 132 68 c 0
 132 0 l 17
376 262 m 0
 376 376 336 467 274 467 c 1
 206 467 130 388 130 262 c 1
 130 120 200 52 255 52 c 0
 328 52 376 128 376 262 c 0
EndSplineSet
Fore
184 0 m 17
 58 0 l 1
 58 710 l 1
 184 710 l 1
 184 492 l 17
 216 524 245.431 535 290 535 c 0
 421.11 535 504 398.26 504 250 c 0
 504 114.085 439.906 -13.7998 277.889 -13.7998 c 5
 227.795 -13.7998 184 34 184 34 c 0
 184 34 184 13.2598 184 0 c 17
377 260 m 0
 377 352.868 331.902 423 293 423 c 1
 249.083 423 180 382 180 262 c 1
 180 125.738 245.36 98 281 98 c 4
 326.851 98 377 150.248 377 260 c 0
EndSplineSet
EndChar
StartChar: c
Encoding: 99 99 23
Width: 527
Flags: HW
Back
408 469 m 9
 359 420 l 2
 331 448 302 468 244 468 c 1
 180 468 117 380 117 262 c 0
 117 144 190 51 254 51 c 0
 316 51 339 77 362 106 c 9
 410 58 l 1
 384 30 350 -14 254 -15 c 1
 128 -15 42 102 42 262 c 0
 42 422 132 534 244 534 c 0
 322 534 362 514 408 469 c 9
EndSplineSet
Fore
480 426 m 9
 379 360 l 2
 355.139 395.583 335.426 425 286 425 c 1
 222.504 425 170 356.806 170 260 c 0
 170 163.251 226 99 296 99 c 1
 361.807 105.369 355.775 142.821 372 154 c 9
 475 90 l 1
 446 52.4111 403.077 -12.6572 296 -14 c 1
 139.094 -14 42 94.8014 42 260 c 0
 42 425.294 145.168 537 286 537 c 0
 364.238 537 433.86 502.5 480 426 c 9
EndSplineSet
EndChar
StartChar: d
Encoding: 100 100 24
Width: 528
Flags: HW
Back
362 0 m 9
 362 68 l 0
 362 68 324 -14 244 -14 c 1
 86 -14 43 126 43 264 c 0
 43 402 102 533 225 533 c 0
 296 533 334 482 362 439 c 9
 362 710 l 1
 436 710 l 1
 436 0 l 1
 362 0 l 9
118 262 m 0
 118 128 166 52 239 52 c 0
 294 52 364 120 364 262 c 1
 364 388 288 467 220 467 c 1
 158 467 118 376 118 262 c 0
EndSplineSet
Fore
351 0 m 17
 477 0 l 1
 477 710 l 1
 351 710 l 1
 351 492 l 17
 319 532 289.569 538 245 538 c 4
 113.89 538 31 398.26 31 250 c 0
 31 114.085 95.0938 -13.7998 257.111 -13.7998 c 1
 307.205 -13.7998 351 34 351 34 c 0
 351 34 351 13.2598 351 0 c 17
158 260 m 0
 158 352.868 203.098 426 242 426 c 5
 285.917 426 355 382 355 262 c 1
 355 125.738 289.64 98 254 98 c 0
 208.149 98 158 150.248 158 260 c 0
EndSplineSet
EndChar
StartChar: e
Encoding: 101 101 25
Width: 534
Flags: HW
Back
120.656 295 m 1
 375.344 295 l 1
 370 380 326.031 468 248 468 c 0
 169.969 468 126 378 120.656 295 c 1
120.641 229 m 1
 128 140 169.938 52 248 52 c 0
 294.016 52 326.375 79.3281 347.422 118.484 c 0
 412.344 91.6094 l 0
 378.984 27.0625 323.422 -14 248 -14 c 1
 118 -14 43 108 43 262 c 0
 43 416 118 534 248 534 c 0
 378 534 451 416 451 262 c 0
 451 251.24 451.469 240.156 451.469 229 c 1
 120.641 229 l 1
EndSplineSet
Fore
177.129 318 m 1
 378.874 318 l 1
 374.641 372.538 339.811 424 278 424 c 4
 216.19 424 181.362 371.254 177.129 318 c 1
177.44 206 m 1
 183.25 146.667 216.364 98 278 98 c 0
 314.237 98 344.72 113.189 361.294 149.281 c 0
 477.344 114.717 l 0
 443.984 29.9355 353.422 -14 278 -14 c 1
 148 -14 43 102.464 43 262.1 c 0
 43 420.007 148 536 278 536 c 4
 408 536 501 420.007 501 262.1 c 0
 501 243.808 501 224.965 501 206 c 1
 177.44 206 l 1
EndSplineSet
KernsSLIF: 116 -26 0 0
EndChar
StartChar: f
Encoding: 102 102 26
Width: 382
Flags: HW
Back
198 458 m 0
 198 0 l 1
 124 0 l 1
 124 458 l 0
 56 458 l 1
 56 524 l 1
 124 524 l 0
 124 578 l 1
 124 674 180 723 263 723 c 0
 304 723 319 710 348 693 c 9
 301 646 l 17
 284 654 282 657 268 657 c 0
 220 657 198 629 198 578 c 1
 198 524 l 0
 294 524 l 1
 294 458 l 1
 198 458 l 0
EndSplineSet
Fore
230 412 m 0
 229.8 0 l 1
 104 0 l 1
 104 412 l 0
 36 412 l 1
 36 524 l 1
 104 524 l 0
 104 563 l 1
 104 674.229 160.95 727 275 727 c 4
 315.904 727 340.868 705.073 369.8 676.4 c 13
 313 596 l 21
 301.152 609.818 289.758 615 280 615 c 4
 231.863 615 229.8 599.029 229.8 562.653 c 1
 230 524 l 0
 310.6 524 l 1
 310.6 412 l 1
 230 412 l 0
EndSplineSet
KernsSLIF: 97 -39 0 0 110 -33 0 0 121 -20 0 0 116 -34 0 0 117 -40 0 0 111 -20 0 0
EndChar
StartChar: g
Encoding: 103 103 27
Width: 544
Flags: HW
Back
118 263 m 0
 118 129 166 53 239 53 c 0
 294 53 364 121 364 263 c 1
 364 389 288 468 220 468 c 1
 158 468 118 377 118 263 c 0
362 69 m 1
 357 58.5 325 -13 244 -13 c 1
 86 -13 43 127 43 265 c 0
 43 403 102 534 225 534 c 0
 296 534 332 490 362 440 c 9
 362 524 l 1
 436 524 l 1
 436 -9 l 2
 436 -142 347 -219 248 -219 c 1
 119 -219 63 -119 55 -53 c 0
 55 -53 97.7002 -53 125 -53 c 17
 134 -111 186 -153 244 -153 c 0
 305 -153 362 -110 362 -16 c 0
 362 69 l 1
EndSplineSet
Fore
170 261 m 0
 170 151.886 220.545 98 267 98 c 4
 302.376 98 367.4 145.53 367.4 261.49 c 1
 367.4 364.448 298.633 426 255 426 c 1
 215.49 426 170 354.424 170 261 c 0
364 38.4004 m 1
 360.864 30.666 320.797 -14 270 -14 c 5
 107.283 -14 43 121.525 43 263 c 0
 43 405.617 126.214 538 258 538 c 0
 302.569 538 345.168 502.116 364 457.929 c 9
 364 524 l 1
 490 524 l 1
 490 -15 l 2
 490 -149.267 376.266 -227 272 -227 c 1
 145.941 -227 71.2176 -119.47 63.4 -48.5 c 0
 63.4 -48.5 135.863 -45.127 182.193 -42.97 c 17
 187.322 -84.1674 236.951 -114 270 -114 c 0
 308.254 -114 364 -85.752 364 -24 c 0
 364 38.4004 l 1
EndSplineSet
EndChar
StartChar: h
Encoding: 104 104 28
Width: 513
Flags: HW
Back
132 0 m 9
 58 0 l 1
 58 710 l 1
 132 710 l 1
 132 450 l 17
 166 486 204 535 275 535 c 0
 400 535 442 430 442 304 c 0
 442 0 l 1
 368 0 l 0
 368 302 l 0
 368 386 334 468 280 468 c 1
 218 468 132 406 132 322 c 0
 132 0 l 9
EndSplineSet
Fore
184 0 m 9
 58 0 l 1
 58 710 l 1
 184 710 l 1
 184 465.273 l 17
 212 516 261.823 538 328.705 538 c 0
 430.722 538 475 423 475 279 c 0
 475 0 l 1
 349 0 l 0
 349 277 l 0
 349 353.916 318.136 424 285 424 c 1
 246.878 424 184 372.096 184 295 c 0
 184 0 l 9
EndSplineSet
EndChar
StartChar: i
Encoding: 105 105 29
Width: 261
Flags: HW
Back
59 651 m 0
 59 676 80 697 105 697 c 0
 130 697 151 676 151 651 c 0
 151 626 130 605 105 605 c 0
 80 605 59 626 59 651 c 0
68 524 m 1
 142 524 l 1
 142 0 l 1
 68 0 l 1
 68 524 l 1
EndSplineSet
Fore
59 651.2 m 0
 59 693.7 91.8239 729.4 130.9 729.4 c 0
 169.976 729.4 202.8 693.7 202.8 651.2 c 0
 202.8 608.7 170.022 573 131 573 c 0
 91.8696 573 59 608.7 59 651.2 c 0
68 524 m 1
 194 524 l 1
 194 0 l 1
 68 0 l 1
 68 524 l 1
EndSplineSet
EndChar
StartChar: j
Encoding: 106 106 30
Width: 261
Flags: HW
Back
59 651 m 0
 59 676 80 697 105 697 c 0
 130 697 151 676 151 651 c 0
 151 626 130 605 105 605 c 0
 80 605 59 626 59 651 c 0
-121 -172 m 9
 -68 -127 l 1
 -56 -138 -38 -144 -14 -144 c 1
 50 -144 68 -102 68 0 c 1
 68 524 l 1
 142 524 l 0
 142 0 l 1
 142 -148 86 -210 -14 -210 c 1
 -64 -210 -97 -195 -121 -172 c 9
EndSplineSet
Fore
59 651.2 m 0
 59 693.7 91.8239 729.4 130.9 729.4 c 0
 169.976 729.4 202.8 693.7 202.8 651.2 c 0
 202.8 608.7 170.022 573 131 573 c 0
 91.8696 573 59 608.7 59 651.2 c 0
-115 -162.8 m 9
 -35.8516 -81.6562 l 1
 -28 -93 -10.8232 -99 6 -99 c 1
 44 -99 68 -70.125 68 0 c 1
 68 524 l 1
 194 524 l 0
 194 0 l 1
 194 -148.705 132 -211 6 -211 c 1
 -44 -211 -79 -203 -115 -162.8 c 9
EndSplineSet
EndChar
StartChar: k
Encoding: 107 107 31
Width: 488
Flags: HW
Back
204 308 m 1
 454 0 l 1
 369 0 l 1
 154 260 l 1
 132 234 l 1
 132 0 l 1
 58 0 l 1
 58 710 l 1
 132 710 l 1
 132 327 l 17
 328 524 l 1
 413 524 l 1
 204 308 l 1
EndSplineSet
Fore
282.074 291.612 m 1
 486.441 0 l 1
 342.613 0 l 1
 191 228 l 1
 184 217 l 1
 184 0 l 1
 58 0 l 1
 58 710 l 1
 184 710 l 1
 184 349.718 l 17
 321.376 524 l 1
 475 524 l 1
 282.074 291.612 l 1
EndSplineSet
EndChar
StartChar: l
Encoding: 108 108 32
Width: 274
Flags: HW
Back
142 105 m 1
 142 66 146 50 160 50 c 1
 160 -14 l 1
 86 -14 68 6 68 103 c 1
 68 710 l 1
 142 710 l 1
 142 105 l 1
EndSplineSet
Fore
194 127 m 1
 194 104.167 200.733 94.7998 224.3 94.7998 c 1
 224 -14 l 1
 108.174 -14 68 9.76074 68 125 c 1
 68 710 l 1
 194 710 l 1
 194 127 l 1
EndSplineSet
EndChar
StartChar: m
Encoding: 109 109 33
Width: 775
Flags: HW
CounterMasks: 1 00
Back
412 0 m 1
 338 0 l 0
 338 302 l 0
 338 386 319 468 265 468 c 1
 203 468 132 406 132 322 c 0
 132 0 l 9
 58 0 l 1
 58 524 l 1
 132 524 l 1
 132 450 l 17
 160 486 189 535 260 535 c 0
 333.672 535 375.608 490.526 395.162 434.777 c 1
 424 480 465.178 535 540 535 c 0
 665 535 692 430 692 304 c 0
 692 0 l 1
 618 0 l 0
 618 302 l 0
 618 386 599 468 545 468 c 1
 483 468 412 406 412 322 c 0
 412 0 l 1
EndSplineSet
Fore
451 0 m 1
 325 0 l 0
 325 277 l 0
 325 353.916 311.986 424 275 424 c 1
 232.579 424 184 372.096 184 295 c 0
 184 0 l 9
 58 0 l 1
 58 524 l 1
 184 524 l 1
 184 466.655 l 21
 204 502 230 538 272 538 c 0
 352 538 394 513 414 463 c 1
 444 505 492.771 538 570.805 538 c 0
 691.854 538 718 423 718 279 c 0
 718 0 l 1
 592 0 l 0
 592 277 l 0
 592 353.916 578.986 424 542 424 c 1
 499.579 424 451 372.096 451 295 c 0
 451 0 l 1
EndSplineSet
EndChar
StartChar: n
Encoding: 110 110 34
Width: 513
Flags: HW
Back
132 0 m 9
 58 0 l 1
 58 524 l 1
 132 524 l 1
 132 450 l 17
 166 488 204 535 275 535 c 0
 400 535 442 430 442 304 c 0
 442 0 l 1
 368 0 l 0
 368 302 l 0
 368 386 334 468 280 468 c 1
 218 468 132 406 132 322 c 0
 132 0 l 9
EndSplineSet
Fore
184 0 m 9
 58 0 l 1
 58 524 l 1
 184 524 l 1
 184 479.273 l 17
 216.028 520.728 261.823 538 328.705 538 c 0
 430.722 538 475 423 475 279 c 0
 475 0 l 1
 349 0 l 0
 349 277 l 0
 349 353.916 318.136 424 285 424 c 1
 246.878 424 184 372.096 184 295 c 0
 184 0 l 9
EndSplineSet
EndChar
StartChar: o
Encoding: 111 111 35
Width: 540
Flags: HW
Back
45 262 m 0
 45 416 118 534 248 534 c 0
 378 534 451 416 451 262 c 0
 451 108 378 -14 248 -14 c 1
 118 -14 45 108 45 262 c 0
120 262 m 0
 120 166 160 52 248 52 c 0
 342 52 376 166 376 262 c 0
 376 358 336 468 248 468 c 0
 160 468 120 358 120 262 c 0
EndSplineSet
Fore
45 262 m 4
 45 421.096 140.877 537 276 537 c 4
 410.483 537 506 421.096 506 262 c 4
 506 103.536 410.483 -14 276 -14 c 5
 140.877 -14 45 103.536 45 262 c 4
172 262 m 4
 172 183.371 218.25 98 276 98 c 4
 336.953 98 379 183.371 379 262 c 4
 379 340.757 333.062 425 276 425 c 4
 218.25 425 172 340.757 172 262 c 4
EndSplineSet
KernsSLIF: 120 -26 0 0
EndChar
StartChar: p
Encoding: 112 112 36
Width: 533
Flags: HW
Back
132 -208 m 17
 58 -208 l 1
 58 524 l 1
 132 524 l 1
 132 439 l 17
 160 486 198 533 269 533 c 0
 392 533 451 402 451 264 c 0
 451 126 408 -14 250 -14 c 1
 170 -14 132 68 132 68 c 0
 132 68 132 -100.36 132 -208 c 17
376 262 m 0
 376 376 336 467 274 467 c 1
 206 467 130 388 130 262 c 1
 130 120 200 52 255 52 c 0
 328 52 376 128 376 262 c 0
EndSplineSet
Fore
184 -220 m 17
 58 -220 l 1
 58 524 l 1
 184 524 l 1
 184 492 l 17
 216 524 245.431 535 290 535 c 0
 421.11 535 504 398.26 504 250 c 0
 504 114.085 439.906 -13.7998 277.889 -13.7998 c 5
 227.795 -13.7998 184 34 184 34 c 0
 184 34 184 -120.94 184 -220 c 17
377 260 m 0
 377 352.868 331.902 423 293 423 c 1
 249.083 423 180 382 180 262 c 1
 180 125.738 245.36 98 281 98 c 4
 326.851 98 377 150.248 377 260 c 0
EndSplineSet
EndChar
StartChar: q
Encoding: 113 113 37
Width: 533
Flags: HW
Back
114 262 m 0
 114 128 164 52 237 52 c 0
 292 52 362 120 362 262 c 1
 362 388 286 467 218 467 c 1
 156 467 114 376 114 262 c 0
434 -97 m 2
 434 -136 448 -153 492 -153 c 1
 492 -219 l 1
 409 -219 360 -186 360 -100 c 0
 360 -97.2822 360 65.2823 360 68 c 1
 360 68 322 -14 242 -14 c 1
 84 -14 41 126 41 264 c 0
 41 402 100 533 223 533 c 0
 294 533 330 486 360 439 c 9
 360 524 l 1
 434 524 l 1
 434 -97 l 2
EndSplineSet
Fore
346 -69 m 0
 346 -175.235 409.303 -219 525 -219 c 1
 524.382 -103 l 1
 480 -103 472 -94 472 -67 c 0
 472 0 l 1
 472 524 l 1
 346 524 l 1
 346 492 l 17
 316 524 284.569 537 240 537 c 0
 108.89 537 26 398.26 26 250 c 0
 26 114.085 90.0938 -13.7998 252.111 -13.7998 c 5
 302.205 -13.7998 346 34 346 34 c 1
 346 30.6 346 -68.707 346 -69 c 0
153 260 m 0
 153 352.868 198.098 425 237 425 c 1
 280.917 425 350 382 350 262 c 1
 350 125.738 284.64 98 249 98 c 4
 203.149 98 153 150.248 153 260 c 0
EndSplineSet
EndChar
StartChar: r
Encoding: 114 114 38
Width: 409
Flags: HW
Back
312 443 m 1
 301 450 266 463 249 463 c 1
 192 463 132 384 132 331 c 2
 132 0 l 17
 58 0 l 1
 58 524 l 1
 132 524 l 1
 132 446 l 17
 158 492 205 530 244 530 c 0
 274 530 320 518 344 503 c 1
 312 443 l 1
EndSplineSet
Fore
357.8 394.144 m 1
 346.835 400.394 307.946 424 291 424 c 1
 234 424 184 348.182 184 300 c 2
 184 0 l 17
 58 0 l 1
 58 524 l 1
 184 524 l 1
 184 468.149 l 17
 214 512 247 538 286 538 c 4
 319.658 538 378.268 517.589 405.194 492.075 c 1
 357.8 394.144 l 1
EndSplineSet
KernsSLIF: 101 -20 0 0
EndChar
StartChar: s
Encoding: 115 115 39
Width: 459
Flags: HW
Back
224 240 m 0
 146.432 265.359 54 300 54 390 c 0
 54 480 126 536 224 536 c 0
 326 536 386 478 397 425 c 1
 328 411 l 0
 317 445 286 470 225 470 c 0
 154 470 129 438 129 393 c 0
 129 338 192 323 225 311 c 0
 298.725 284.191 405 244 405 145 c 0
 405 42 330 -14 226 -14 c 0
 122 -14 62 34 42 106 c 1
 111 119 l 1
 122 76 160 52 224 52 c 0
 292 52 330 84 330 145 c 0
 330 196 276 223 224 240 c 0
EndSplineSet
Fore
219 217 m 0
 143.713 242.528 54 281.4 54 372 c 0
 54 481.726 136.965 537 239 537 c 4
 339.172 537 401.097 462.242 411.9 391.188 c 1
 295 370 l 0
 289.447 403.424 270 425 240 425 c 4
 204 425 186 412 186 374 c 0
 186 351 222 328 245.307 321.093 c 0
 316.259 300.066 424 254.863 424 157 c 0
 424 34.5664 337.743 -14 232 -14 c 0
 124.609 -14 58.6523 47.7256 38 141.814 c 1
 151.159 160.459 l 1
 158.931 119.732 185.78 98 231 98 c 0
 266.925 98 297 112 297 156 c 0
 297 182.842 252.358 208.053 219 217 c 0
EndSplineSet
EndChar
StartChar: t
Encoding: 116 116 40
Width: 345
Flags: HW
Back
124 458 m 0
 55 458 l 1
 55 524 l 1
 124 524 l 0
 124 646 l 1
 198 646 l 0
 198 524 l 0
 294 524 l 1
 294 458 l 1
 198 458 l 0
 198 105 l 0
 198 54 233 48 255 48 c 1
 289 48 l 1
 289 -14 l 1
 255 -14 l 1
 155 -14 124 24 124 103 c 1
 124 458 l 0
EndSplineSet
Fore
104 412 m 0
 35 412 l 1
 35 524 l 1
 104 524 l 0
 104 646 l 1
 229.8 646 l 0
 230 524 l 0
 305.3 524 l 1
 305.3 412 l 1
 230 412 l 0
 230 138 l 0
 230 96.8418 262 92 284 92 c 1
 303 92 l 1
 303 -14 l 5
 284 -14 l 5
 144.305 -14 104 34.7178 104 136 c 1
 104 412 l 0
EndSplineSet
EndChar
StartChar: u
Encoding: 117 117 41
Width: 523
Flags: HW
Back
363 524 m 9
 437 524 l 1
 437 0 l 1
 363 0 l 1
 363 68 l 17
 344 39 311 -11 240 -11 c 0
 115 -11 53 94 53 220 c 0
 53 524 l 1
 127 524 l 0
 127 222 l 0
 127 138 181 56 235 56 c 1
 297 56 363 118 363 202 c 0
 363 524 l 9
EndSplineSet
Fore
344 524 m 9
 470 524 l 1
 470 0 l 1
 344 0 l 1
 344 51.8945 l 17
 333 33 298 -13 254 -13 c 0
 99.9971 -13 53 101 53 245 c 0
 53 524 l 1
 179 524 l 0
 179 247 l 0
 179 170.084 212 101 255 101 c 1
 308 101 344 151.904 344 229 c 0
 344 524 l 9
EndSplineSet
EndChar
StartChar: v
Encoding: 118 118 42
Width: 518
Flags: HW
Back
213 0 m 1
 35 524 l 1
 113 524 l 1
 250 95 l 1
 390 524 l 1
 467 524 l 1
 287 0 l 1
 213 0 l 1
EndSplineSet
Fore
200.76 0 m 1
 35 524 l 1
 167.623 524 l 1
 260.232 198.802 l 1
 354.295 524 l 1
 485 524 l 1
 319.284 0 l 1
 200.76 0 l 1
EndSplineSet
EndChar
StartChar: w
Encoding: 119 119 43
Width: 708
Flags: HW
Back
336 405 m 1
 225 0 l 1
 168 0 l 1
 28 524 l 1
 101 524 l 1
 197 138 l 1
 301 520 l 1
 371 520 l 17
 475 138 l 1
 571 524 l 17
 644 524 l 1
 504 0 l 1
 444 0 l 1
 336 405 l 1
EndSplineSet
Fore
354.151 304.685 m 1
 284.634 0 l 1
 181.756 0 l 1
 28 524 l 1
 152.368 524 l 1
 234.562 241.384 l 1
 298.07 525.759 l 1
 411.126 526.034 l 17
 474.714 242.492 l 1
 557.632 524 l 17
 681 524 l 1
 527.244 0 l 1
 420.366 0 l 1
 354.151 304.685 l 1
EndSplineSet
EndChar
StartChar: x
Encoding: 120 120 44
Width: 515
Flags: HW
Back
420 0 m 1
 337 0 l 9
 219 215 l 1
 107 0 l 1
 21 0 l 9
 174 263 l 1
 22 524 l 9
 105 524 l 1
 219 312 l 0
 333 524 l 1
 416 524 l 1
 264 265 l 0
 420 0 l 1
EndSplineSet
Fore
498.522 0 m 1
 348.414 0 l 9
 255.997 163.785 l 1
 163.251 0 l 1
 13.3176 0 l 9
 179.734 261.792 l 1
 22 524 l 9
 163.442 524 l 1
 256.138 362.902 l 0
 347.8 524 l 1
 501 524 l 1
 331.881 265.938 l 0
 498.522 0 l 1
EndSplineSet
EndChar
StartChar: y
Encoding: 121 121 45
Width: 493
Flags: HW
Back
138.367 -89.7646 m 0
 158.949 -127.923 200.183 -153 245 -153 c 0
 306 -153 363 -110 363 -16 c 0
 363 71 l 17
 346 41 311 -8 240 -8 c 0
 115 -8 53 97 53 223 c 0
 53 524 l 1
 127 524 l 0
 127 225 l 0
 127 141 181 59 235 59 c 1
 297 59 363 121 363 205 c 0
 363 524 l 9
 437 524 l 1
 437 208 l 1
 437 -9 l 2
 437 -142 348 -219 249 -219 c 1
 160.388 -219 106.221 -171.815 78.3965 -120.877 c 1
 138.367 -89.7646 l 0
EndSplineSet
Fore
168.106 -54.5752 m 0
 178.315 -90.4346 238.769 -114 261 -114 c 0
 298.737 -114 344 -84.1826 344 -19 c 0
 344 -19 344 12.5049 344 32.6475 c 17
 328 8 301.87 -14 258 -14 c 0
 127.652 -14 53 106 53 250 c 0
 53 524 l 1
 179 524 l 0
 179 252 l 0
 179 175.084 222 100 255 100 c 1
 293.266 100 344 156.479 344 233 c 0
 344 524 l 9
 470 524 l 1
 470 236 l 1
 470 -14 l 2
 470 -148.9 367.213 -227 264 -227 c 1
 178 -227 94 -170 68.1738 -109.146 c 1
 168.106 -54.5752 l 0
EndSplineSet
EndChar
StartChar: z
Encoding: 122 122 46
Width: 491
Flags: HW
Back
162 69 m 1
 423 69 l 1
 423 0 l 1
 39 0 l 1
 305 455 l 2
 49 455 l 1
 49 524 l 1
 428 524 l 1
 162 69 l 1
EndSplineSet
Fore
235.934 117 m 1
 434 117 l 1
 434 0 l 1
 32.1247 1.73472e-18 l 1
 245.203 407 l 2
 56 407 l 1
 56 524 l 1
 449.597 524 l 1
 235.934 117 l 1
EndSplineSet
EndChar
StartChar: braceleft
Encoding: 123 123 21
Width: 365
Flags: HW
Back
39 356 m 1
 171 398 118 623 144 684 c 1
 174 745 238 745 305 747 c 1
 305 681 l 1
 298 682 291 683 284 683 c 0
 258 683 223 673 210 654 c 1
 205 645 204 626 204 604 c 2
 204 582 l 2
 204 523 192 376 143 356 c 1
 192 338 204 178 204 116 c 0
 204 95 l 0
 204 71 205 52 210 43 c 1
 223 24 258 14 284 14 c 0
 291 14 298 15 305 16 c 1
 305 -50 l 1
 238 -48 174 -48 144 13 c 1
 118 74 171 316 39 356 c 1
EndSplineSet
Fore
39 356 m 5
 160 396 116 648 146 705 c 4
 175.637 761.309 238.429 760.35 315 762 c 5
 315 658 l 5
 261 658 237.924 643 237.924 584 c 4
 237.924 509 232 382 173 356 c 5
 232 331 237.924 203 237.924 128 c 4
 237.924 69 261 54 315 54 c 5
 315 -50 l 5
 238.429 -48.3496 175.636 -49.3089 146 7 c 4
 116 64 160 317 39 356 c 5
EndSplineSet
EndChar
StartChar: bar
Encoding: 124 124 22
Width: 229
Flags: HW
Back
56 0 m 17
 56 710 l 1
 126 710 l 1
 126 0 l 9
 56 0 l 17
EndSplineSet
Fore
56 0 m 17
 56 710 l 1
 175 710 l 1
 175 0 l 9
 56 0 l 17
EndSplineSet
EndChar
StartChar: braceright
Encoding: 125 125 22
Width: 365
Flags: HW
Back
326 356 m 1
 194 316 247 77 221 16 c 1
 191 -45 127 -45 60 -47 c 1
 60 19 l 1
 67 18 74 17 81 17 c 0
 107 17 142 27 155 46 c 1
 160 55 161 74 161 98 c 0
 161 119 l 0
 161 181 173 338 222 356 c 1
 173 376 161 523 161 582 c 2
 161 604 l 2
 161 626 160 645 155 654 c 1
 142 673 107 683 81 683 c 0
 74 683 67 682 60 681 c 1
 60 747 l 1
 127 745 191 745 221 684 c 1
 247 623 194 398 326 356 c 1
EndSplineSet
Fore
335 356 m 1
 214 317 258 64 228 7 c 0
 198.363 -49.3086 135.571 -48.3496 59 -50 c 1
 59 54 l 1
 113 54 136.076 69 136.076 128 c 0
 136.076 203 142 331 201 356 c 1
 142 382 136.076 509 136.076 584 c 0
 136.076 643 113 658 59 658 c 1
 59 762 l 1
 135.571 760.35 198.363 761.309 228 705 c 0
 258 648 214 396 335 356 c 1
EndSplineSet
EndChar
StartChar: asciitilde
Encoding: 126 126 23
Width: 371
Flags: HW
Back
26 373 m 17
 48 391 77 420 115 420 c 0
 163 420 194 346 245 346 c 1
 279 346 307 372 337 394 c 9
 337 323 l 17
 307 300 281 275 245 275 c 0
 189 275 154 349 114 349 c 0
 76 349 53 324 26 302 c 9
 26 373 l 17
EndSplineSet
Fore
26 394.553 m 17
 48 412.609 77 444.7 115 444.7 c 0
 163 444.7 199 370.7 250 370.7 c 1
 284 370.7 316 403 337 423 c 9
 336 296 l 17
 318 282 290.696 250 250 250 c 0
 194 250 154 324 114 324 c 0
 76 324 56 299 26 277 c 9
 26 394.553 l 17
EndSplineSet
EndChar
StartChar: cent
Encoding: 162 162 26
Width: 432
Flags: HW
Back
181 136 m 1
 100 146 34 212 34 321 c 0
 34 426 118 470 179 485 c 1
 179 590 l 1
 245 590 l 1
 245 485 l 1
 284 475 316 453 342 430 c 9
 298 384 l 2
 284 398 258 423 207 423 c 1
 153 423 104 380 104 319 c 0
 104 244 148 198 210 198 c 0
 250 198 284 214 312 250 c 9
 356 206 l 1
 336 174 295 149 247 134 c 1
 247 38 l 1
 181 38 l 1
 181 136 l 1
EndSplineSet
Fore
153 143 m 1
 87.4287 151.595 34 214.319 34 308 c 0
 34 403.897 101.2 463.082 150 476.782 c 1
 150 590 l 1
 262.2 590 l 1
 262.2 477 l 1
 301.602 459.945 328 452 353 418 c 9
 280 346 l 2
 276.859 343.354 262 371 216 371 c 1
 182 371 153 340 153 307 c 0
 153 270 180 234 215 234 c 0
 256 234 270 252 288 272 c 9
 359 199 l 1
 332 166 316 154 265 139 c 1
 265 38 l 1
 153 38 l 1
 153 143 l 1
EndSplineSet
EndChar
StartChar: sterling
Encoding: 163 163 27
Width: 619
Flags: HW
Back
147 291 m 1
 36 291 l 1
 36 357 l 1
 152 357 l 1
 152 586 190 716 286 716 c 0
 356 716 410 672 446 571 c 1
 376 568 l 1
 366 608 338 651 286 651 c 0
 254 651 227 534 227 456 c 2
 227 395 l 1
 227 357 l 1
 402 357 l 1
 402 291 l 1
 224 291 l 1
 218.708 216.919 191.104 123.312 172 66 c 1
 418 66 l 1
 434 67 451 68 475 101 c 1
 514 45 l 1
 491 10 451 6 412 0 c 1
 66 0 l 1
 82.0318 64.127 140.42 185.721 147 291 c 1
EndSplineSet
Fore
143.596 268 m 1
 36 268 l 1
 36 380 l 1
 152 380 l 1
 152 596.88 204.746 720 338 720 c 0
 408.219 720 462.388 670.07 498.5 555.457 c 1
 406 545 l 1
 398.444 575.843 377.289 609 338 609 c 0
 306.542 609 280 522.6 280 465 c 2
 280 413 l 1
 280 380 l 1
 454 380 l 1
 454 268 l 1
 281 268 l 1
 272.044 216.637 266 156 243 112 c 1
 469.2 112.622 l 1
 490 112.622 508 136 514.5 150.436 c 1
 586 76 l 1
 559.392 16.8889 512 0 468 0 c 1
 66 0 l 1
 81.3581 59.0585 137.293 171.042 143.596 268 c 1
EndSplineSet
EndChar
StartChar: currency
Encoding: 164 164 28
Width: 482
Flags: HW
Back
70 368 m 4
 70 461.84 146.16 538 240 538 c 4
 333.84 538 410 461.84 410 368 c 4
 410 274.16 333.84 198 240 198 c 4
 146.16 198 70 274.16 70 368 c 4
192 368 m 0
 192 394.496 213.504 416 240 416 c 0
 266.496 416 288 394.496 288 368 c 0
 288 341.504 266.496 320 240 320 c 0
 213.504 320 192 341.504 192 368 c 0
EndSplineSet
Fore
192 367 m 0xd8
 192 338 216.5 319.852 241 319.852 c 0
 266 319.852 288 342.5 288 367 c 0
 288 396.5 265 416 241 416 c 0
 214.5 416 192 396.5 192 367 c 0xd8
293 207 m 1
 278 200 249.092 198 241 198 c 0
 232.908 198 204.5 199.5 189 206 c 1
 189 149 l 1
 26 149 l 1
 26 312 l 1xe8
 80 312 l 1
 74 326 70 345.677 70 366 c 0xd8
 70 386.022 73 406 78 419 c 1
 26 419 l 1
 26 582 l 1
 189 582 l 1
 189 529.438 l 1xe8
 204 536 232.908 538.473 241 538.473 c 0
 249.092 538.473 281.5 535 293 529.272 c 1
 293 582 l 1
 456 582 l 1
 456 419 l 1
 401.671 419 l 1
 407 398 410.129 386.022 410.129 366 c 0
 410.129 345.677 406 331 399.923 312 c 1
 456 312 l 1
 456 149 l 1
 293 149 l 1
 293 207 l 1
EndSplineSet
EndChar
StartChar: yen
Encoding: 165 165 29
Width: 555
Flags: HW
Back
225 333 m 1
 73 333 l 1
 73 399 l 1
 199 399 l 1
 31 682 l 1
 107 682 l 1
 265 406 l 1
 433 682 l 1
 509 682 l 1
 327 399 l 1
 448 399 l 1
 448 333 l 1
 299 333 l 1
 299 228 l 1
 448 228 l 1
 448 162 l 1
 299 162 l 1
 299 0 l 1
 225 0 l 1
 225 162 l 1
 73 162 l 1
 73 228 l 1
 225 228 l 1
 225 333 l 1
EndSplineSet
Fore
205 310 m 1
 70 310 l 1
 70 422 l 1
 152.689 422 l 1
 22 682 l 1
 160 682 l 1
 272.829 433.725 l 1
 394 682 l 1
 522 682 l 1
 382.36 422 l 1
 458 422 l 1
 458 310 l 1
 331 310 l 1
 331 251 l 1
 458 251 l 1
 458 139 l 1
 331 139 l 1
 330.8 0 l 1
 205 0 l 1
 205 139 l 1
 70 139 l 1
 70 251 l 1
 205 251 l 1
 205 310 l 1
EndSplineSet
EndChar
StartChar: brokenbar
Encoding: 166 166 26
Width: 198
Flags: HW
Back
109 325 m 17
 109 0 l 1
 39 0 l 1
 39 325 l 9
 109 325 l 17
39 375 m 17
 39 700 l 1
 109 700 l 1
 109 375 l 9
 39 375 l 17
EndSplineSet
Fore
158 325 m 17
 158 0 l 1
 39 0 l 1
 39 325 l 9
 158 325 l 17
39 375 m 17
 39 700 l 1
 158 700 l 1
 158 375 l 9
 39 375 l 17
EndSplineSet
EndChar
StartChar: section
Encoding: 167 167 27
Width: 339
Flags: HW
Back
86 468 m 1
 95.1215 470.606 105.656 471.999 118 472 c 0
 218.699 472 321 382 321 259 c 0
 321 150 252 51 166 51 c 0
 108 51 59.7628 74.9002 20 142 c 9
 93 147 l 17
 106 129 139 117 158 117 c 2
 160 117 l 2
 208 117 240 160 250 215 c 0
 251.322 222.271 229.713 211.003 218 211 c 0
 118.877 211 16 282 16 426 c 0
 16 532 78 632 170 632 c 0
 236 632 266 608 309 552 c 1
 234 544 l 0
 222 557 194 566 178 566 c 2
 176 566 l 2
 124 566 98 522 86 468 c 1
242 284 m 0
 242 341 190 406 117 406 c 0
 105.675 406 98.2422 403.71 90 399 c 1
 90 341 156 277 215 277 c 0
 225.907 277 242 275.589 242 284 c 0
EndSplineSet
Fore
136.312 490.903 m 1
 140.499 493.572 145.334 494.999 151 495 c 0
 237.462 495 325.3 399.761 325.3 269.6 c 0
 325.3 142.992 254.386 28 166 28 c 0
 109.112 28 61.8002 60.807 22.8 152.913 c 9
 128 174 l 17
 131.47 151.452 158.929 140 164 140 c 2
 164 140 l 2
 185.659 140 200.098 165.041 204.61 197.071 c 0
 205.503 213.56 190.91 188.007 183 188 c 0
 101.052 188 16 263.623 16 417 c 0
 16 539.466 77.1948 655 168 655 c 0
 233.003 655 262.55 619.5 304.9 536.667 c 1
 200 512 l 0
 197.993 534.786 172.676 543 170 543 c 2
 170 543 l 2
 150.536 543 140.804 519.609 136.312 490.903 c 1
191 305 m 0
 191 341.443 174.36 383 151 383 c 0
 147.225 383 144.747 381.691 142 379 c 1
 142 341.443 163.12 300 182 300 c 0
 185.636 300 191 298.992 191 305 c 0
EndSplineSet
EndChar
StartChar: dieresis
Encoding: 168 168 27
Width: 456
Flags: HW
Back
262 409 m 0
 262 434 283 455 308 455 c 0
 333 455 354 434 354 409 c 0
 354 384 333 363 308 363 c 0
 283 363 262 384 262 409 c 0
32 408 m 0
 32 433 53 454 78 454 c 0
 103 454 124 433 124 408 c 0
 124 383 103 362 78 362 c 0
 53 362 32 383 32 408 c 0
EndSplineSet
Ref: 46 46 N 1 0 0 1 234 342
Ref: 46 46 N 1 0 0 1 4 342
EndChar
StartChar: copyright
Encoding: 169 169 28
Width: 532
Flags: HW
Back
-38 364 m 4
 -38 513.04 80.272 634 226 634 c 4
 371.728 634 490 513.04 490 364 c 4
 490 214.96 371.728 94 226 94 c 4
 80.272 94 -38 214.96 -38 364 c 4
319.48 282.82 m 21
 297.34 260.68 264.13 242.23 229.69 242.23 c 4
 160.81 242.23 105.46 297.58 105.46 366.46 c 4
 105.46 435.34 160.81 490.69 229.69 490.69 c 4
 264.13 490.69 297.34 477.16 319.48 455.02 c 13
 264 398 l 21
 255 406 242 412 229 412 c 4
 204 412 183 391 183 366 c 4
 183 341 204 320 229 320 c 4
 242 320 257 325 266 333 c 13
 319.48 282.82 l 21
48.5996 366.3 m 4
 48.5996 266.25 129.1 184.6 229.15 184.6 c 4
 329.2 184.6 409.7 266.25 409.7 366.3 c 4
 409.7 466.35 329.2 548 229.15 548 c 4
 129.1 548 48.5996 466.35 48.5996 366.3 c 4
EndSplineSet
Fore
-38 364 m 0
 -38 513.04 80.272 634 226 634 c 0
 371.728 634 490 513.04 490 364 c 0
 490 214.96 371.728 94 226 94 c 0
 80.272 94 -38 214.96 -38 364 c 0
319.48 282.82 m 17
 297.34 260.68 264.13 242.23 229.69 242.23 c 0
 160.81 242.23 105.46 297.58 105.46 366.46 c 0
 105.46 435.34 160.81 490.69 229.69 490.69 c 0
 264.13 490.69 297.34 477.16 319.48 455.02 c 9
 264 398 l 17
 255 406 242 412 229 412 c 0
 204 412 183 391 183 366 c 0
 183 341 204 320 229 320 c 0
 242 320 257 325 266 333 c 9
 319.48 282.82 l 17
48.5996 366.3 m 0
 48.5996 266.25 129.1 184.6 229.15 184.6 c 0
 329.2 184.6 409.7 266.25 409.7 366.3 c 0
 409.7 466.35 329.2 548 229.15 548 c 0
 129.1 548 48.5996 466.35 48.5996 366.3 c 0
EndSplineSet
EndChar
StartChar: ordfeminine
Encoding: 170 170 29
Width: 243
Flags: HW
HStem: 378 36<14 226> 434 36.1603<96.9962 99.111> 602.748 36.1603<96.9962 99.111> 696.984 36.1603<98.0536 105.984>
VStem: -4.51496 39.6528<536.454 539.741> 159.383 38.0667<529.879 589.599>
Fore
14 414 m 1
 226 414 l 1
 226 352 l 5
 14 352 l 5
 14 414 l 1
EndSplineSet
Ref: 97 97 N 0.528704 0 0 0.547884 -23.5483 441.67
EndChar
StartChar: guillemotleft
Encoding: 171 171 30
Width: 443
Flags: HW
Back
314 546 m 1
 380 546 l 1
 286 404 l 1
 380 262 l 1
 314 262 l 1
 220 404 l 1
 314 546 l 1
118 546 m 1
 184 546 l 1
 90 404 l 1
 184 262 l 1
 118 262 l 1
 24 404 l 1
 118 546 l 1
EndSplineSet
Fore
289.035 546.611 m 5
 394 546 l 5
 300.135 403.779 l 5
 393.965 261.611 l 5
 289 262 l 5
 194.865 403.779 l 5
 289.035 546.611 l 5
117.035 546.611 m 5
 224 546 l 5
 130.135 403.779 l 5
 221.965 261.611 l 5
 117 262 l 5
 24.8643 403.779 l 5
 117.035 546.611 l 5
EndSplineSet
EndChar
StartChar: logicalnot
Encoding: 172 172 31
Width: 547
Flags: HW
Back
444 266 m 1
 378 266 l 1
 378 366 l 0
 70 366 l 1
 70 436 l 1
 444 436 l 1
 444 266 l 1
EndSplineSet
Fore
490 171 m 1
 378 171 l 1
 378 341 l 0
 70 341 l 1
 70 460 l 1
 490 460 l 1
 490 171 l 1
EndSplineSet
EndChar
StartChar: registered
Encoding: 174 174 33
Width: 598
Flags: HW
Back
98 366 m 0
 98 234 204 175 289 175 c 0
 376 175 481 244 481 366 c 0
 481 498 364 558 289 558 c 0
 202 558 98 496 98 366 c 0
41 366 m 0
 41 538 180 615 289 615 c 0
 424 615 538 510 538 366 c 0
 538 218 414 118 289 118 c 0
 174 118 41 202 41 366 c 0
243 391 m 1
 251 391 259 391 268 391 c 0
 306 391 343 394 343 423 c 1
 343 453 297 455 257 455 c 0
 252 455 247 455 243 455 c 1
 243 391 l 1
203 493 m 0
 243 493 l 1
 316 493 382 475 382 423 c 0
 382 374 338 361 291 354 c 1
 393 242 l 1
 344 242 l 1
 243 352 l 1
 243 242 l 1
 203 242 l 1
 203 493 l 0
EndSplineSet
Fore
138 363 m 0
 138 246.895 227.351 195 299 195 c 0
 371.047 195 458 255.691 458 363 c 0
 458 483.312 361.109 538 299 538 c 0
 225.665 538 138 481.49 138 363 c 0
41 363 m 0
 41 550.888 185.605 635 299 635 c 0
 437.795 635 555 520.301 555 363 c 0
 555 204.855 427.514 98 299 98 c 0
 179.363 98 41 187.758 41 363 c 0
262 372 m 1
 268.4 372 274.8 371.52 282 371.52 c 0
 312.4 371.52 333 374.19 333 400 c 1
 333 426.25 305.093 428 273 428 c 0
 269.071 428 265.143 428 262 428 c 1
 262 372 l 1
194 492.6 m 0
 262 493 l 1
 338.676 493 399 469.086 399 400 c 0
 399 349.002 370.824 335.472 331.113 328.188 c 1
 403.365 239.654 l 1
 320 240 l 1
 262 313.824 l 1
 262 240 l 1
 194 240 l 1
 194 492.6 l 0
EndSplineSet
EndChar
StartChar: macron
Encoding: 175 175 34
Width: 345
Flags: HW
Back
26 552 m 1
 321 552 l 1
 321 486 l 1
 26 486 l 1
 26 552 l 1
EndSplineSet
Fore
26 572 m 1
 321 572 l 1
 321 459 l 1
 26 459 l 1
 26 572 l 1
EndSplineSet
EndChar
StartChar: degree
Encoding: 176 176 28
Width: 373
Flags: HW
Back
76.3203 575.05 m 4
 76.3203 534.16 107.34 501.73 146.82 501.73 c 4
 186.3 501.73 217.32 534.16 217.32 575.05 c 4
 217.32 615.94 186.3 648.37 146.82 648.37 c 4
 107.34 648.37 76.3203 615.94 76.3203 575.05 c 4
-8.08984 575.21 m 4
 -8.08984 659.91 60.8799 727.67 146.79 727.67 c 4
 232.7 727.67 301.67 659.91 301.67 575.21 c 4
 301.67 490.51 232.7 422.75 146.79 422.75 c 4
 60.8799 422.75 -8.08984 490.51 -8.08984 575.21 c 4
EndSplineSet
Fore
76.3203 575.05 m 0
 76.3203 534.16 107.34 501.73 146.82 501.73 c 0
 186.3 501.73 217.32 534.16 217.32 575.05 c 0
 217.32 615.94 186.3 648.37 146.82 648.37 c 0
 107.34 648.37 76.3203 615.94 76.3203 575.05 c 0
-8.08984 575.21 m 0
 -8.08984 659.91 60.8799 727.67 146.79 727.67 c 0
 232.7 727.67 301.67 659.91 301.67 575.21 c 0
 301.67 490.51 232.7 422.75 146.79 422.75 c 0
 60.8799 422.75 -8.08984 490.51 -8.08984 575.21 c 0
EndSplineSet
EndChar
StartChar: uni00B2
Encoding: 178 178 30
Width: 238
Flags: HW
Back
63 623 m 9
 25 640 l 17
 34 671 65 700 102 700 c 1
 139 700 184 671 184 606 c 1
 184 561 142 523 98 481 c 1
 81 463 l 1
 188 463 l 17
 188 425 l 1
 25 425 l 1
 25 463 l 1
 67 505 l 17
 98 537 142 567 142 606 c 0
 142 642 124 662 102 662 c 1
 82 662 69 646 63 623 c 9
EndSplineSet
Fore
62 608 m 9
 10.6577 633.551 l 17
 21.3341 675.116 58.1082 714 102 714 c 1
 152.085 714 213 678.213 213 598 c 1
 213 558.289 182 524 140.154 487.693 c 1
 126.278 477 l 1
 212.1 477 l 17
 212.1 412 l 1
 25 412 l 1
 25 464.786 l 1
 61.4014 498.153 l 17
 88 524 142 568.712 142 598 c 0
 142 630.786 124 649 102 649 c 1
 80 649 76 630 62 608 c 9
EndSplineSet
EndChar
StartChar: uni00B3
Encoding: 179 179 31
Width: 232
Flags: HW
Back
14 466 m 9
 50 478 l 17
 60 458 81 451 96 451 c 1
 122 451 145 469 145 494 c 1
 145 522 126 542 96 542 c 1
 89 542 l 2
 86 542 84 542 82 541 c 1
 82 581 l 1
 84 580 86 580 89 580 c 2
 97 580 l 1
 124 580 141 597 141 623 c 1
 141 644 123 662 96 662 c 1
 82 662 61 656 54 637 c 9
 21 656 l 17
 35 686 65 700 96 700 c 1
 144 700 180 665 180 623 c 1
 180 586 160 569 150 560 c 1
 161 550 183 532 183 494 c 1
 183 444 145 412 96 412 c 1
 66 412 29 432 14 466 c 9
EndSplineSet
Fore
2 484.567 m 9
 64.2422 504.621 l 17
 71.5811 482.68 91.9922 477 103 477 c 1
 130.592 477 148 488.651 148 509 c 1
 148 526.5 127.837 548 96 548 c 1
 89 548 l 2
 86 548 84 548 82 547.722 c 1
 82 598.276 l 1
 84 598 86 598 89 598 c 2
 97 597.6 l 1
 124 597.6 141 615.223 141 633 c 1
 141 647 129 662 102 662 c 1
 82 662 67 650.946 60 638.11 c 9
 8.74023 666.198 l 17
 25.0283 707.654 65.9326 727 102 727 c 1
 165.429 727 207 682.636 207 633 c 1
 207 595.512 176 577 158.08 572.17 c 1
 176 566 212.6 543.643 212.6 509 c 1
 212.6 447.415 168.671 411 103 411 c 1
 62 411 17 435.099 2 484.567 c 9
EndSplineSet
EndChar
StartChar: acute
Encoding: 180 180 29
Width: 303
Flags: W
DStem: 127.607 759.01 259 759 43.3154 635.163 177 635
Back
44 609 m 1
 127 728 l 1
 211 728 l 2
 129 609 l 2
 44 609 l 1
EndSplineSet
Fore
43.3154 635.163 m 1
 177 635 l 25
 259 759 l 25
 127.607 759.01 l 1
 43.3154 635.163 l 1
EndSplineSet
EndChar
StartChar: mu
Encoding: 181 181 30
Width: 551
Flags: HW
Back
140 36.1504 m 1
 140 -193 l 1
 70 -193 l 1
 70 426 l 1
 141 426 l 0
 141 202 l 0
 141 94 179 54 237 54 c 1
 315 54 350 142 350 202 c 0
 350 426 l 9
 420 426 l 1
 420 0 l 1
 350 0 l 1
 350 48 l 17
 321 12 280.995 -13 242 -13 c 0
 182 -13 162 14 140 36.1504 c 1
EndSplineSet
Fore
189 37.8496 m 1
 189 -194 l 1
 70 -194 l 1
 70 434 l 1
 190.7 434 l 0
 189.586 227.897 l 0
 189.586 128.729 251.916 100 286 100 c 1
 331.558 100 372 172.865 372 228 c 0
 372 434 l 9
 491 434 l 1
 491 0 l 1
 372 0 l 1
 372 40.9658 l 17
 355.083 3.80566 311.747 -14 289 -14 c 0
 253.706 -14 201.941 10.8774 189 37.8496 c 1
EndSplineSet
EndChar
StartChar: paragraph
Encoding: 182 182 31
Width: 628
Flags: HW
Back
310 615 m 1
 310 365 l 1
 327 365 398 361 416 361 c 1
 416 621 l 1
 399 621 328 615 310 615 c 1
240 599 m 1
 188 582 124 554 124 486 c 1
 124 410 186 392 240 378 c 1
 240 599 l 1
310 66 m 1
 416 66 l 1
 416 299 l 1
 398 299 328 304 310 304 c 1
 310 66 l 1
240 0 m 1
 240 314 l 1
 134 337 54 373 54 486 c 0
 54 618 218 682 394 682 c 1
 490 682 l 0
 490 0 l 1
 240 0 l 1
EndSplineSet
Fore
359 596 m 1
 359 388 l 1
 364.132 388 425.566 381.4 431 381.4 c 1
 431 600 l 1
 425.868 600 364.434 596 359 596 c 1
240 558.75 m 1
 218.931 548.708 173 532.168 173 492 c 1
 173 436.777 218.121 423.698 240 413.525 c 1
 240 558.75 l 1
359 112 m 1
 431 112 l 1
 431 276 l 1
 425.566 276 364.434 278.3 359 278.3 c 1
 359 112 l 1
240 0 m 1
 240 302 l 1
 145.398 327.407 54 367.174 54 492 c 0
 54 634.776 263.529 704 424 704 c 1
 556.8 703.7 l 0
 556.8 0 l 1
 240 0 l 1
EndSplineSet
EndChar
StartChar: cedilla
Encoding: 184 184 30
Width: 258
Flags: HW
Back
52 -93 m 1
 67 -82 98 -60 98 -42 c 0
 98 -26 87 -14 71 9 c 0
 134 36 l 0
 155 16 175 -14 175 -48 c 0
 175 -102 107 -132 73 -154 c 1
 52 -93 l 1
EndSplineSet
Fore
27.9375 -116.104 m 1
 49.1533 -103.788 92 -82.1543 92 -62 c 0
 92 -46 92 -30 71 -8 c 9
 101.852 9.20312 150.106 36.1113 150.106 36.1113 c 0
 176.993 12.0371 202.6 -24.0742 202.6 -65 c 0
 202.6 -119 126.2 -156 83 -178 c 1
 27.9375 -116.104 l 1
EndSplineSet
EndChar
StartChar: uni00B9
Encoding: 185 185 31
Width: 156
Flags: HW
Back
35 606 m 1
 11 635 l 1
 64 682 l 1
 102 682 l 1
 102 414 l 1
 65 414 l 1
 65 631 l 1
 35 606 l 1
EndSplineSet
Fore
38 588 m 5
 3.13379 626.236 l 1
 63.7306 682 l 1
 128 682 l 1
 128 414 l 1
 65 414 l 1
 65 613.5 l 1
 38 588 l 5
EndSplineSet
EndChar
StartChar: ordmasculine
Encoding: 186 186 32
Width: 357
Flags: HW
Back
21 401 m 1
 275 401 l 1
 275 347 l 1
 21 347 l 1
 21 401 l 1
73.8496 555.25 m 0
 73.8496 513.2 105.75 479.85 146.35 479.85 c 0
 186.95 479.85 218.85 513.2 218.85 555.25 c 0
 218.85 597.3 186.95 630.65 146.35 630.65 c 0
 105.75 630.65 73.8496 597.3 73.8496 555.25 c 0
18 555 m 0
 18 625 75 681 146 681 c 0
 217 681 274 625 274 555 c 0
 274 485 217 429 146 429 c 0
 75 429 18 485 18 555 c 0
EndSplineSet
Fore
21 408 m 1
 335 408 l 1
 335 316 l 1
 21 316 l 1
 21 408 l 1
EndSplineSet
Ref: 176 176 N 1 0 0 1 30 1
EndChar
StartChar: guillemotright
Encoding: 187 187 33
Width: 480
Flags: HW
Back
109 546 m 1
 203 404 l 1
 109 262 l 1
 43 262 l 1
 137 404 l 1
 43 546 l 1
 109 546 l 1
305 546 m 1
 399 404 l 1
 305 262 l 1
 239 262 l 1
 333 404 l 1
 239 546 l 1
 305 546 l 1
EndSplineSet
Fore
166.965 546.611 m 1
 62 546 l 1
 155.865 403.779 l 1
 62.0352 261.611 l 1
 167 262 l 1
 261.135 403.779 l 1
 166.965 546.611 l 1
338.965 546.611 m 1
 232 546 l 1
 325.865 403.779 l 1
 234.035 261.611 l 1
 339 262 l 1
 431.136 403.779 l 1
 338.965 546.611 l 1
EndSplineSet
EndChar
StartChar: onequarter
Encoding: 188 188 34
Width: 1000
Flags: H
Back
66 606 m 1
 42 635 l 1
 95 682 l 1
 133 682 l 1
 133 414 l 1
 96 414 l 1
 96 631 l 1
 66 606 l 1
427 0 m 1
 383 0 l 1
 383 106 l 1
 262 106 l 9
 293 313 l 1
 338 313 l 1
 311 150 l 1
 383 150 l 1
 383 313 l 1
 427 313 l 1
 427 150 l 9
 471 150 l 17
 471 106 l 1
 427 106 l 1
 427 0 l 1
76 153 m 1
 20 153 l 1
 356 555 l 0
 412 555 l 1
 76 153 l 1
EndSplineSet
EndChar
StartChar: onehalf
Encoding: 189 189 35
Width: 1000
Flags: H
Back
76 153 m 1
 20 153 l 1
 356 555 l 0
 412 555 l 1
 76 153 l 1
305 198 m 9
 268 214 l 17
 276 246 307 275 344 275 c 1
 381 275 426 246 426 180 c 1
 426 136 384 98 341 55 c 1
 323 38 l 1
 430 38 l 17
 430 0 l 1
 268 0 l 1
 268 38 l 1
 309 79 l 17
 341 111 384 142 384 180 c 0
 384 217 366 237 344 237 c 1
 324 237 311 221 305 198 c 9
66 606 m 1
 42 635 l 1
 95 682 l 1
 133 682 l 1
 133 414 l 1
 96 414 l 1
 96 631 l 1
 66 606 l 1
EndSplineSet
EndChar
StartChar: threequarters
Encoding: 190 190 36
Width: 1000
Flags: H
Back
96 153 m 1
 40 153 l 1
 376 555 l 0
 432 555 l 1
 96 153 l 1
11 466 m 9
 47 478 l 17
 57 458 78 451 93 451 c 1
 119 451 142 469 142 494 c 1
 142 522 123 542 93 542 c 1
 90 542 88 542 86 542 c 0
 84 542 82 542 79 541 c 1
 79 581 l 1
 82 580 84 580 86 580 c 0
 88 580 90 580 94 580 c 1
 121 580 138 597 138 623 c 1
 138 644 120 662 93 662 c 1
 79 662 58 656 51 637 c 9
 18 656 l 17
 32 686 62 700 93 700 c 1
 141 700 177 665 177 623 c 1
 177 586 157 569 147 560 c 1
 158 550 180 532 180 494 c 1
 180 444 142 412 93 412 c 1
 63 412 26 432 11 466 c 9
447 0 m 1
 403 0 l 1
 403 106 l 1
 282 106 l 9
 313 313 l 1
 358 313 l 1
 331 150 l 1
 403 150 l 1
 403 313 l 1
 447 313 l 1
 447 150 l 9
 491 150 l 17
 491 106 l 1
 447 106 l 1
 447 0 l 1
EndSplineSet
EndChar
StartChar: AE
Encoding: 198 198 37
Width: 776
Flags: HW
Back
378.428 315.11 m 1
 249.242 315.11 l 0
 123.015 0 l 0
 35.4453 0 l 1
 324.218 711 l 1
 670.327 711 l 1
 670.327 638.285 l 0
 454.53 638.285 l 0
 454.53 384.957 l 1
 670.327 384.957 l 1
 670.327 313.025 l 0
 454.53 313.025 l 0
 454.53 71.9326 l 0
 670.327 71.9326 l 1
 670.327 0 l 1
 378.428 0 l 1
 378.428 315.11 l 1
377.385 603.883 m 1
 377.385 640.37 l 1
 278.645 384.957 l 1
 378.428 384.957 l 1
 377.385 603.883 l 1
EndSplineSet
Fore
400 291 m 1
 264.392 291 l 0
 150.406 0 l 0
 5 0 l 1
 286 711 l 1
 719 711 l 1
 719 587.384 l 0
 529.737 587.384 l 0
 529.734 410.284 l 1
 719 410.284 l 1
 719 288 l 0
 529.373 288 l 0
 529.373 122.285 l 0
 719 122.285 l 1
 719 0 l 1
 400 0 l 1
 400 291 l 1
400 628 m 1
 303.43 409.74 l 1
 399.882 409.74 l 1
 400 628 l 1
EndSplineSet
EndChar
StartChar: Eth
Encoding: 208 208 46
Width: 723
Flags: HW
Back
154 323.44 m 1
 65.5195 323.44 l 1
 65.5195 392.08 l 1
 154 392.08 l 1
 154 711 l 1
 340.08 711 l 1
 518.96 711 635.36 553.28 635.36 354.64 c 1
 635.36 156 515.84 0 340.08 0 c 0
 229.76 0 l 1
 154 0 l 1
 154 323.44 l 1
230.8 323.44 m 1
 230.8 69.6797 l 1
 340.08 69.6797 l 1
 465.92 69.6797 558.56 185.12 558.56 354.64 c 1
 558.56 524.16 465.92 640.64 340.08 640.64 c 1
 230.8 640.64 l 1
 230.8 392.08 l 1
 377.52 392.08 l 1
 377.52 323.44 l 1
 230.8 323.44 l 1
EndSplineSet
Fore
127 299 m 1
 66 299 l 1
 66 415.688 l 1
 127 415.688 l 1
 127 711 l 1
 340 711 l 1
 535.406 711 662.56 553.439 662.56 355 c 1
 662.56 156.158 531.998 0 340 0 c 0
 230 0 l 1
 127 0 l 1
 127 299 l 1
257.977 299 m 1
 257.56 118.455 l 1
 340 118.455 l 1
 450.588 118.455 532 214.282 532 355 c 1
 532 495.114 450.588 591.388 340 591.388 c 1
 257.56 591.388 l 1
 257.977 415.688 l 1
 378 415.688 l 1
 378 299 l 1
 257.977 299 l 1
EndSplineSet
EndChar
StartChar: Oslash
Encoding: 216 216 53
Width: 1210
Flags: HW
Back
260.642 -14 m 5
 120.668 -14 l 5
 440.305 739.991 l 4
 571 740 l 5
 260.642 -14 l 5
511 368 m 0
 511 478.932 474.629 610 349 610 c 0
 224.324 610 187 478.932 187 368 c 1
 187 247.48 225.118 104 349 104 c 1
 473.834 104 511 247.48 511 368 c 0
49 368 m 1
 49 524.582 129 727 349 727 c 1
 570.014 727 649 524.582 649 368 c 1
 649 201.431 568.962 -14 349 -14 c 1
 130.053 -14 49 201.431 49 368 c 1
EndSplineSet
Fore
266 -3 m 1
 260 -14 l 1
 121 -14 l 1
 154 66 l 1
 84 136 49 268 49 355 c 1
 49 535 132 727 352 727 c 1
 379.289 727 409.596 723.671 430 716 c 1
 434 729 l 0
 567 729 l 1
 537 658 l 1
 621 582 649 465 649 355 c 1
 649 226 581 -14 349 -14 c 1
 321 -14 291 -10 266 -3 c 1
311 109 m 5
 324 107 327.732 104 348 104 c 1
 478 104 511 262 511 355 c 0
 511 416.705 505 467 481 521 c 1
 311 109 l 5
215 208 m 1
 383 606 l 1
 373 607 370 610 352 610 c 1
 218 610 186 469 186 355 c 1
 186 323 197 247 215 208 c 1
EndSplineSet
EndChar
StartChar: Thorn
Encoding: 222 222 57
Width: 676
Flags: HW
Back
142.8 232.96 m 1
 274.88 232.96 419.6 258.96 419.6 366.08 c 1
 419.6 480.48 249.92 492.96 142.8 492.96 c 1
 142.8 232.96 l 1
66 711 m 0
 142.8 711 l 1
 142.8 561.6 l 1
 325.84 561.6 496.4 521.04 496.4 366.08 c 0
 496.4 198.64 322.72 164.32 142.8 164.32 c 1
 142.8 0 l 1
 66 0 l 1
 66 711 l 0
EndSplineSet
Fore
196.56 256.688 m 1
 290.295 256.688 393 278.038 393 366 c 1
 393 458.869 272.581 469 196.56 469 c 1
 196.56 256.688 l 1
66 711 m 0
 196.56 711 l 1
 196.56 585.688 l 1
 365.831 585.688 523.56 540.114 523.56 366 c 0
 523.56 178.443 362.945 140 196.56 140 c 1
 196.56 0 l 1
 66 0 l 1
 66 711 l 0
EndSplineSet
EndChar
StartChar: germandbls
Encoding: 223 223 58
Width: 616
Flags: HW
Back
80.1699 562.38 m 1
 123.43 658.17 190.32 722.03 314.95 722.03 c 1
 436.49 722.03 536.34 648.9 532.22 524.27 c 1
 532.22 429.51 434.43 380.07 375.72 364.62 c 1
 431.34 351.23 540.46 293.55 540.46 194.67 c 1
 540.46 58.71 435.46 -14.4199 293.32 -14.4199 c 1
 261.39 -14.4199 235.64 -5.15039 202.68 11.3301 c 9
 246.97 71.0703 l 17
 263.45 64.8896 278.9 53.5596 293.32 53.5596 c 1
 389.11 53.5596 468.48 95.79 468.48 194.67 c 1
 468.48 267.8 360.27 331.66 264.48 331.66 c 1
 246.97 331.66 l 2
 240.79 331.66 234.61 331.66 226.37 328.57 c 1
 226.37 402.73 l 1
 233.58 400.67 238.73 400.67 243.88 400.67 c 2
 264.48 400.67 l 1
 347.91 400.67 459.21 448.05 459.21 524.27 c 1
 459.21 614.91 403.53 655.08 314.95 655.08 c 1
 215.04 655.08 170.69 604.61 149.06 539.72 c 1
 115.07 440.84 121.25 151.41 111.98 0 c 1
 40 0 l 1
 55.4502 176.13 43.0898 485.13 80.1699 562.38 c 1
EndSplineSet
Fore
65.5329 592.225 m 1
 111.499 684.43 182.574 745.9 315 745.9 c 1
 450.989 745.9 542.71 663.843 538.1 524 c 1
 538.1 429.985 493.988 389.933 455.497 374.605 c 1
 492.603 361.163 565.4 294.261 565.4 195 c 1
 565.4 43.4922 458.668 -14 302 -14 c 1
 270.183 -14 235.524 -20.2421 202.68 11.3301 c 9
 254 110 l 17
 267.26 103.668 279.691 92.0605 291.293 92.0605 c 1
 373.324 92.0605 443 112.735 443 195 c 1
 443 255.323 348.051 317 264 317 c 1
 247 317 l 2
 251.779 317 247.628 318 254 339 c 1
 261.3 412 l 5
 324 412 414 448.979 414 524 c 0
 414 598.835 388.07 632 315 632 c 1
 229.478 632 191.515 587.812 173 531 c 1
 140.112 433.718 158.092 148.964 149.122 0 c 1
 40 0 l 1
 49.8205 185.477 41.9639 510.875 65.5329 592.225 c 1
EndSplineSet
EndChar
StartChar: ae
Encoding: 230 230 63
Width: 1000
Flags: H
Back
208 294 m 0xb8
 134 294 110 236 110 173 c 0
 110 110 134 52 208 52 c 0
 270 52 306 108 306 173 c 1
 306 238 270 294 208 294 c 0xb8
347.172 444.129 m 1
 381.085 499.773 413.985 534 484 534 c 0
 614 534 667 416 667 262 c 0
 667 251.234 665.469 240.156 665.469 229 c 1
 377.297 229 l 1xd8
 377.297 182 389 52 484 52 c 0
 530.016 52 542.375 79.3281 563.422 118.484 c 0
 628.344 91.6094 l 0
 594.984 27.0625 559.422 -14 484 -14 c 0
 405.844 -14 380.021 27.0371 346 80 c 1
 320 34 302 -14 208 -14 c 0
 98 -14 36 68 36 173 c 0
 36 278 108 360 208 360 c 0
 270.223 360 289 337 308 309 c 1
 308.915 317.082 305.915 330.206 307.264 337.988 c 1
 307.264 409.284 281.354 466 210 466 c 0
 164 466 142 450 120 428 c 9
 105.18 447.5 82 478 82 478 c 0
 116 506 140 532 210 532 c 0
 273.279 532 313.223 501.687 347.172 444.129 c 1
377.364 295 m 1
 591.344 295 l 1
 582.672 381.516 562.031 468 484 468 c 0
 404 468 379 369 377.364 295 c 1
EndSplineSet
EndChar
StartChar: igrave
Encoding: 236 236 68
Width: 269
Flags: HW
HStem: 0 21G<68 199> 504 20G<68 199>
VStem: 68 131<0 524>
DStem: -22 686 109.393 686.01 60 562 193.685 562.163
Fore
68 524 m 5
 199 524 l 5
 199 0 l 5
 68 0 l 5
 68 524 l 5
EndSplineSet
Ref: 96 96 N 1 0 0 1 -69 -73
EndChar
StartChar: iacute
Encoding: 237 237 69
Width: 266
Flags: HMW
VStem: 70 70<0 524>
DStem: 149 684 233 684 66 565 151 565
Fore
68 524 m 1
 199 524 l 1
 199 0 l 1
 68 0 l 1
 68 524 l 1
EndSplineSet
Ref: 180 180 N 1 0 0 1 22 -44
EndChar
StartChar: icircumflex
Encoding: 238 238 70
Width: 267
Flags: HW
HStem: 0 21G<68 199> 504 20G<68 199>
VStem: 68 131<0 524>
DStem: 133.256 638.303 191.691 727.655 198 558 330 559.615
Fore
68 524 m 1
 199 524 l 1
 199 0 l 1
 68 0 l 1
 68 524 l 1
EndSplineSet
Ref: 94 94 N 1 0 0 1 -122 -1
EndChar
StartChar: idieresis
Encoding: 239 239 71
Width: 268
Flags: HW
HStem: 0 21G<128 202> 504 20G<128 202>
VStem: 4 92<608.596 621> 128 74<0 524> 234 92<619 621>
CounterMasks: 1 00
Fore
68 524 m 1
 199 524 l 1
 199 0 l 1
 68 0 l 1
 68 524 l 1
EndSplineSet
Ref: 168 168 S 1 0 0 1 -92 240
EndChar
StartChar: eth
Encoding: 240 240 72
Width: 519
Flags: HW
Back
109 222 m 0
 109 109 186 52 235 52 c 0
 310 52 374 136 374 222 c 1
 374 316 290 386 216 386 c 1
 156 386 109 295 109 222 c 0
329 630 m 1
 371 582 436 480 442 391 c 1
 445.345 341.819 449.318 306.46 448 245 c 1
 448 94 355.041 -14 240 -14 c 0
 92 -14 35 99 35 224 c 0
 35 350 116 452 221 452 c 0
 304 452 329 413 366 380 c 1
 366 436 320 547 274 588 c 1
 199 518 l 1
 151 567 l 1
 217 630 l 1
 191 639 165 642 139 642 c 0
 120 642 101 640 83 638 c 1
 76 710 l 1
 89 711 103 711 116 711 c 0
 171 711 225 703 276 677 c 1
 352 745 l 1
 399 692 l 1
 329 630 l 1
EndSplineSet
Fore
161 228 m 0
 161 134.941 212.333 88 245 88 c 0
 295.18 88 338 157.176 338 228 c 1
 338 305.378 281.646 353 232 353 c 1
 192.187 353 161 288.091 161 228 c 0
364 600 m 1
 401.472 555.921 454.647 457.731 460 376 c 1
 465.876 333.959 466.315 299.538 464 247 c 1
 464 89.0039 367.466 -24 248 -24 c 0
 94.2244 -24 35 96.5966 35 230 c 0
 35 365.395 122.532 465 236 465 c 0
 286.372 465 329.545 422.723 352 390 c 1
 352 425.107 314 512 282 542 c 1
 242 502 l 1
 164.438 577.245 l 1
 202 618 l 1
 192 628 176 632 160 630 c 1
 132 632 105 623.032 84.2998 621.7 c 1
 76 720 l 1
 96 728 142.402 728 162 728 c 0
 190.767 728 250 712 286 684 c 1
 344.154 738.148 l 1
 424 648 l 1
 364 600 l 1
EndSplineSet
EndChar
StartChar: oslash
Encoding: 248 248 79
Width: 510
Flags: HW
Back
26 -14 m 29
 390 538 l 25
 518 536 l 25
 166 -14 l 25
 26 -14 l 29
45 262 m 0
 45 421.096 140.877 537 276 537 c 0
 410.483 537 506 421.096 506 262 c 0
 506 103.536 410.483 -14 276 -14 c 1
 140.877 -14 45 103.536 45 262 c 0
172 262 m 0
 172 183.371 218.25 98 276 98 c 0
 336.953 98 379 183.371 379 262 c 0
 379 340.757 333.062 425 276 425 c 0
 218.25 425 172 340.757 172 262 c 0
EndSplineSet
Fore
373 310 m 1
 244 108 l 1
 252 101.5 264 98 276 98 c 0
 335 98 379 181.371 379 260 c 0
 379 271.278 379 292 373 310 c 1
309 415 m 1
 302 420 293 425 282 425 c 0
 212 425 172 338 172 260 c 0
 172 248.768 174 225 178 216 c 1
 309 415 l 1
26 -14 m 1
 93 87 l 1
 66.5 124 45 192 45 260 c 1
 45 420 134 537 282 537 c 0
 308.381 537 353 527 374 513 c 1
 389.81 537.779 l 1
 518 538 l 1
 456 439 l 1
 486 396 506 330 506 260 c 0
 506 101.536 408 -14 278 -14 c 1
 248 -14 205 -7 181 9 c 1
 166.008 -14 l 1
 26 -14 l 1
EndSplineSet
EndChar
StartChar: thorn
Encoding: 254 254 83
Width: 504
Flags: HW
Back
132 0 m 17
 58 0 l 1
 58 710 l 1
 132 710 l 1
 132 543 l 17
 164 589 198 627 269 627 c 0
 392 627 451 496 451 358 c 0
 451 220 408 80 250 80 c 1
 170 80 132 152 132 152 c 0
 132 152 132 59.2803 132 0 c 17
377 356 m 0
 377 470 336 561 274 561 c 1
 206 561 130 482 130 356 c 1
 130 214 200 146 255 146 c 0
 328 146 377 222 377 356 c 0
EndSplineSet
Fore
184 0 m 17
 58 0 l 1
 58 710 l 1
 184 710 l 1
 184 596.017 l 17
 204.321 628.317 225.912 650 271 650 c 0
 402.11 650 465 509.26 465 361 c 0
 465 210.094 420.834 57 258.549 57 c 1
 208.007 57 184 96 184 96 c 0
 184 96 184 37.4404 184 0 c 17
339 366 m 0
 339 461.649 313.126 538 274 538 c 1
 229.611 538 180 481.549 180 391.514 c 1
 180 241.052 225.92 169 262 169 c 0
 308.074 169 339 240.295 339 366 c 0
EndSplineSet
EndChar
StartChar: figuredash
Encoding: 8210 8210 79
Width: 575
Flags: HW
Back
78 330 m 1
 453 330 l 1
 453 264 l 1
 78 264 l 1
 78 330 l 1
EndSplineSet
Fore
98 353 m 5
 473 353 l 5
 473 241 l 5
 98 241 l 5
 98 353 l 5
EndSplineSet
EndChar
StartChar: endash
Encoding: 8211 8211 80
Width: 489
Flags: HW
Back
78 330 m 1
 413 330 l 1
 413 264 l 1
 78 264 l 1
 78 330 l 1
EndSplineSet
Fore
78 353 m 1
 413 353 l 1
 413 241 l 1
 78 241 l 1
 78 353 l 1
EndSplineSet
EndChar
StartChar: emdash
Encoding: 8212 8212 81
Width: 630
Flags: HW
Back
68 330 m 1
 561 330 l 1
 561 264 l 1
 68 264 l 1
 68 330 l 1
EndSplineSet
Fore
68 353 m 1
 561 353 l 1
 561 241 l 1
 68 241 l 1
 68 353 l 1
EndSplineSet
EndChar
StartChar: Euro
Encoding: 8364 8364 87
Width: 599
Flags: HW
Back
126.902 372 m 1
 64 372 l 1
 64 438 l 1
 138.611 438 l 1
 163.131 521.963 222.27 584 306 584 c 0
 384 584 414 564 460 519 c 9
 413 472 l 2
 385 500 364 518 306 518 c 1
 264.776 518 233.547 482.305 215.084 438 c 1
 347 438 l 1
 347 372 l 1
 197.721 372 l 1
 196.581 362.76 196 353.689 196 345 c 0
 196 334.571 196.562 324.567 197.617 315 c 1
 344 315 l 1
 344 249 l 1
 214.806 249 l 1
 237.63 196.947 276.694 169 306 169 c 0
 348 169 373 177 415 223 c 9
 462 176 l 1
 429 138 399 103 306 103 c 1
 215.584 103 161.322 166.269 138.562 249 c 1
 61 249 l 1
 61 315 l 1
 127.247 315 l 1
 126.413 325.575 126 336.265 126 347 c 0
 126 355.41 126.303 363.753 126.902 372 c 1
EndSplineSet
Fore
127.317 371 m 1
 64 371 l 1
 64 453 l 1
 137.439 452.2 l 1
 167.843 546.975 251.175 626 355 626 c 0
 422 626 478 600 533 529 c 9
 457 464 l 17
 434 492 404.327 514.414 355 514 c 1
 322.278 514 270 488 264.834 452 c 1
 396 452 l 1
 396 371 l 1
 254 371 l 1
 252.013 369.289 251 367.609 251 366 c 0
 251 363.914 251.805 317.913 253.316 316 c 1
 393 316 l 1
 393 235 l 1
 265.308 235 l 1
 276 208 332.604 192 355 192 c 0
 397 192 417 192 450 228 c 9
 535 163 l 1
 498.192 117.712 458.731 80 355 80 c 1
 242.681 80 156 152 135 235 c 1
 61 235 l 1
 61 316 l 1
 127.685 316 l 1
 126.558 317.983 126 363.987 126 366 c 0
 126 367.682 126.443 369.351 127.317 371 c 1
EndSplineSet
EndChar
